<?xml version="1.0" encoding="UTF-8"?>
<svg width="164px" height="68px" viewBox="0 0 164 68" version="1.1" xmlns="http://www.w3.org/2000/svg" xmlns:xlink="http://www.w3.org/1999/xlink">
    <title>Group 9</title>
    <g id="Page-1" stroke="none" stroke-width="1" fill="none" fill-rule="evenodd">
        <g id="Desktop_Homepage" transform="translate(-346.000000, -4862.000000)" fill="#FFFFFF">
            <g id="footer" transform="translate(-29.000000, 4833.000000)">
                <g id="partenaire" transform="translate(29.000000, 0.000000)">
                    <g id="Group-9" transform="translate(346.000000, 29.000000)">
                        <polygon id="Fill-1" points="0.9279 45.1661 4.6279 45.1661 4.6279 44.2661 1.9279 44.2661 1.9279 42.4661 4.5279 42.4661 4.5279 41.5661 1.9279 41.5661 1.9279 39.7661 4.5279 39.7661 4.5279 38.8661 0.9279 38.8661 0.9279 38.7661"></polygon>
                        <g id="Group-8">
                            <path d="M10.6,43 C10.6,41.8 11.5,40.8 12.8,40.8 C14.2,40.8 15,41.8 15,43 C15,44.2 14.1,45.2 12.8,45.2 C11.5,45.2 10.6,44.2 10.6,43 M14.1,43 C14.1,42.3 13.6,41.7 12.8,41.7 C12.1,41.7 11.6,42.3 11.6,43 C11.6,43.7 12.1,44.3 12.8,44.3 C13.6,44.3 14.1,43.7 14.1,43 M8.8,42.4 C8.7,41.9 8.5,41.6 7.8,41.6 C7,41.6 6.7,42.2 6.7,42.9 C6.7,43.6 7,44.2 7.9,44.2 C8.5,44.2 8.7,43.9 8.8,43.5 L9.8,43.5 C9.7,44.4 9,45.1 7.8,45.1 C6.4,45.1 5.7,44 5.7,42.9 C5.7,41.8 6.4,40.7 7.8,40.7 C9.2,40.7 9.7,41.5 9.8,42.4 C9.8,42.4 8.8,42.4 8.8,42.4" id="Fill-2"></path>
                            <path d="M25.4,23.2 L25.4,0.1 L29,0.1 L29,14.7 L34.7,7.9 L39.2,7.9 L32.8,15.6 L39.2,23.3 L34.7,23.3 L29,16.4 L29,23.2 L25.4,23.2 Z M19.7,0 C21,0 22.1,1.1 22.1,2.4 C22.1,3.7 21,4.8 19.7,4.8 C18.4,4.8 17.3,3.7 17.3,2.4 C17.3,1.1 18.4,0 19.7,0 L19.7,0 Z M17.9,23.2 L21.5,23.2 L21.5,7.8 L17.9,7.8 L17.9,23.2 Z M7.6,7.4 C11.6,7.4 14.8,10.4 14.8,14.3 C14.8,14.8 14.8,15.5 14.6,16.6 L3.7,16.6 C3.7,18.8 4.9,20.6 7.7,20.6 C9.8,20.6 10.5,19.7 11,18.6 L14.6,18.6 C14.1,21.2 11.7,23.6 7.7,23.6 C2.5,23.6 0,19.7 0,15.5 C0,10.9 2.7,7.4 7.6,7.4 L7.6,7.4 Z M11.3,13.9 C11.3,11.7 9.8,10.4 7.6,10.4 C5.5,10.4 3.8,11.6 3.8,13.9 L11.3,13.9 Z M138.4,64.8 C138.4,65.7 137.6,66.1 136.7,66.1 C135.8,66.1 135,65.6 135,64.6 L136,64.6 C136,65.2 136.3,65.4 136.8,65.4 C137.2,65.4 137.5,65.3 137.5,64.9 C137.5,64.5 137.1,64.5 136.2,64.1 C135.6,63.9 135.2,63.7 135.2,62.9 C135.2,62.1 135.9,61.7 136.8,61.7 C137.7,61.7 138.4,62.3 138.4,63.1 L137.4,63.1 C137.4,62.7 137.2,62.4 136.7,62.4 C136.4,62.4 136.1,62.6 136.1,62.9 C136.1,63.3 136.5,63.3 137.3,63.6 C137.8,63.8 138.4,64 138.4,64.8 L138.4,64.8 Z M134.3,66 C134.1,66 133.8,66.1 133.6,66.1 C133.1,66.1 132.2,66 132.2,64.6 L132.2,62.6 L131.5,62.6 L131.5,61.8 L132.2,61.8 L132.2,60.5 L133.2,60.5 L133.2,61.8 L134.2,61.8 L134.2,62.6 L133.2,62.6 L133.2,64.3 C133.2,65 133.4,65.1 133.8,65.1 L134.3,65.1 L134.3,66 Z M130.8,62.7 L130.4,62.7 C129.6,62.7 129.1,63.2 129.1,64.2 L129.1,66 L128.1,66 L128.1,61.8 L129.1,61.8 L129.1,62.5 C129.3,62.1 129.8,61.8 130.4,61.8 C130.6,61.8 130.7,61.8 130.8,61.9 L130.8,62.7 Z M126.2,66 L125.9,65.2 L123.5,65.2 L123.2,66 L122.1,66 L124.3,59.6 L125,59.6 L127.2,66 L126.2,66 Z M124.7,61.3 L123.8,64.2 L125.6,64.2 L124.7,61.3 Z M118.4,65.4 C118.1,65.8 117.6,66.1 117.1,66.1 C115.8,66.1 114.9,65.1 114.9,63.9 C114.9,62.7 115.8,61.7 117.1,61.7 C117.6,61.7 118.1,62 118.4,62.4 L118.4,59.7 L119.4,59.7 L119.4,66 L118.4,66 L118.4,65.4 Z M118.4,63.9 C118.4,63.2 117.9,62.6 117.1,62.6 C116.4,62.6 115.9,63.2 115.9,63.9 C115.9,64.6 116.4,65.2 117.1,65.2 C117.9,65.2 118.4,64.6 118.4,63.9 L118.4,63.9 Z M111,64.2 C111,64.8 111.3,65.3 112.1,65.3 C112.7,65.3 112.9,65 113,64.7 L114,64.7 C113.9,65.4 113.2,66.1 112.1,66.1 C110.7,66.1 110,65.1 110,63.9 C110,62.6 110.8,61.7 112.1,61.7 C113.2,61.7 114.1,62.5 114.1,63.6 L114.1,64.2 L111,64.2 Z M111,63.4 L113.1,63.4 C113.1,62.8 112.7,62.4 112.1,62.4 C111.4,62.4 111,62.7 111,63.4 L111,63.4 Z M108.4,59.5 C108.8,59.5 109.1,59.8 109.2,60.2 C109.2,60.6 108.9,60.9 108.5,61 L108.4,61 C108,61 107.7,60.7 107.7,60.3 C107.6,59.8 108,59.5 108.4,59.5 L108.4,59.5 Z M107.9,66 L108.9,66 L108.9,61.8 L107.9,61.8 L107.9,66 Z M105.5,66 L106.5,66 L106.5,59.6 L105.5,59.6 L105.5,66 Z M100.9,62.3 C101.2,61.9 101.7,61.6 102.2,61.6 C103.5,61.6 104.4,62.6 104.4,63.8 C104.4,65 103.5,66 102.2,66 C101.7,66 101.2,65.7 100.9,65.3 L100.9,68 L99.9,68 L99.9,61.6 L100.9,61.6 L100.9,62.3 Z M100.9,63.9 C100.9,64.6 101.4,65.2 102.2,65.2 C102.9,65.2 103.4,64.6 103.4,63.9 C103.4,63.2 102.9,62.6 102.2,62.6 C101.4,62.5 100.9,63.1 100.9,63.9 L100.9,63.9 Z M95.3,62.3 C95.6,61.9 96.1,61.6 96.6,61.6 C97.9,61.6 98.8,62.6 98.8,63.8 C98.8,65 97.9,66 96.6,66 C96.1,66 95.6,65.7 95.3,65.3 L95.3,68 L94.3,68 L94.3,61.6 L95.3,61.6 L95.3,62.3 Z M95.3,63.9 C95.3,64.6 95.8,65.2 96.6,65.2 C97.3,65.2 97.8,64.6 97.8,63.9 C97.8,63.2 97.3,62.6 96.6,62.6 C95.8,62.5 95.3,63.1 95.3,63.9 L95.3,63.9 Z M92.4,66 L92.1,65.2 L89.7,65.2 L89.4,66 L88.3,66 L90.5,59.6 L91.2,59.6 L93.4,66 L92.4,66 Z M90.9,61.3 L90,64.2 L91.8,64.2 L90.9,61.3 Z M86.1,60.5 C86,60.5 85.8,60.4 85.7,60.4 C85.4,60.4 85,60.4 85,61.1 L85,61.7 L86.1,61.7 L86.1,62.5 L85,62.5 L85,66 L84,66 L84,62.6 L83.1,62.6 L83.1,61.8 L84,61.8 L84,61.3 C84,59.7 85,59.6 85.5,59.6 C85.8,59.6 86,59.7 86.1,59.7 L86.1,60.5 Z M78.1,63.9 C78.1,62.7 79,61.7 80.3,61.7 C81.7,61.7 82.5,62.7 82.5,63.9 C82.5,65.1 81.6,66.1 80.3,66.1 C78.9,66.1 78.1,65 78.1,63.9 L78.1,63.9 Z M81.5,63.9 C81.5,63.2 81,62.6 80.2,62.6 C79.5,62.6 79,63.2 79,63.9 C79,64.6 79.5,65.2 80.2,65.2 C81,65.2 81.5,64.6 81.5,63.9 L81.5,63.9 Z M74,66 L75,66 L75,59.6 L74,59.6 L74,66 Z M68.4,63.9 C68.4,62.7 69.3,61.7 70.6,61.7 C72,61.7 72.8,62.7 72.8,63.9 C72.8,65.1 71.9,66.1 70.6,66.1 C69.2,66.1 68.4,65 68.4,63.9 L68.4,63.9 Z M71.8,63.9 C71.8,63.2 71.3,62.6 70.5,62.6 C69.8,62.6 69.3,63.2 69.3,63.9 C69.3,64.6 69.8,65.2 70.5,65.2 C71.4,65.2 71.8,64.6 71.8,63.9 L71.8,63.9 Z M63.1,63.9 C63.1,62.7 64,61.7 65.3,61.7 C66.7,61.7 67.5,62.7 67.5,63.9 C67.5,65.1 66.6,66.1 65.3,66.1 C63.9,66.1 63.1,65 63.1,63.9 L63.1,63.9 Z M66.5,63.9 C66.5,63.2 66,62.6 65.2,62.6 C64.5,62.6 64,63.2 64,63.9 C64,64.6 64.5,65.2 65.2,65.2 C66.1,65.2 66.5,64.6 66.5,63.9 L66.5,63.9 Z M58.1,59.6 L59.1,59.6 L59.1,62.3 C59.4,61.8 59.9,61.6 60.5,61.6 C61.1,61.6 61.5,61.8 61.8,62.2 C62,62.5 62.1,62.9 62.1,63.5 L62.1,66 L61.1,66 L61.1,63.8 C61.1,63.1 60.9,62.5 60.2,62.5 C59.5,62.5 59.2,63.1 59.2,63.8 L59.2,66 L58.2,66 L58.1,59.6 Z M56,63.3 C55.9,62.8 55.7,62.5 55,62.5 C54.2,62.5 53.9,63.1 53.9,63.8 C53.9,64.5 54.2,65.1 55.1,65.1 C55.7,65.1 55.9,64.8 56,64.4 L57,64.4 C56.9,65.3 56.2,66 55,66 C53.6,66 52.9,64.9 52.9,63.8 C52.9,62.7 53.6,61.6 55,61.6 C56.4,61.6 56.9,62.4 57,63.3 L56,63.3 Z M48.6,63.9 C48.6,64.7 49.1,65.2 49.8,65.2 C50.4,65.2 50.8,64.8 50.8,64.3 C50.8,63.7 50.2,63.4 49.8,63.3 C48.6,62.9 47.7,62.5 47.7,61.3 C47.7,60.2 48.6,59.6 49.7,59.6 C50.8,59.6 51.7,60.4 51.7,61.6 L50.7,61.6 C50.7,61 50.3,60.5 49.7,60.5 C49.2,60.5 48.7,60.8 48.7,61.3 C48.7,61.8 49.2,62.1 49.6,62.2 C50.6,62.6 51.8,63 51.8,64.2 C51.8,65.5 50.8,66.2 49.6,66.2 C48.4,66.2 47.4,65.4 47.4,64 C47.6,63.9 48.6,63.9 48.6,63.9 L48.6,63.9 Z M43.4,66 L44.4,66 L44.4,59.6 L43.4,59.6 L43.4,66 Z M42,61.7 L42,66 L41,66 L41,65.4 C40.7,65.8 40.2,66.1 39.7,66.1 C38.4,66.1 37.5,65.1 37.5,63.9 C37.5,62.7 38.4,61.7 39.7,61.7 C40.2,61.7 40.7,62 41,62.4 L41,61.8 L42,61.7 Z M41,63.9 C41,63.2 40.5,62.6 39.7,62.6 C39,62.6 38.5,63.2 38.5,63.9 C38.5,64.6 39,65.2 39.7,65.2 C40.5,65.2 41,64.6 41,63.9 L41,63.9 Z M32.6,61.7 L33.6,61.7 L33.6,62.3 C33.9,61.8 34.4,61.6 35,61.6 C35.6,61.6 36,61.8 36.3,62.2 C36.5,62.5 36.6,62.9 36.6,63.5 L36.6,66 L35.6,66 L35.6,63.8 C35.6,63.1 35.4,62.5 34.7,62.5 C34,62.5 33.7,63.1 33.7,63.8 L33.7,66 L32.7,66 C32.6,66 32.6,61.7 32.6,61.7 L32.6,61.7 Z M27,63.9 C27,62.7 27.9,61.7 29.2,61.7 C30.6,61.7 31.4,62.7 31.4,63.9 C31.4,65.1 30.5,66.1 29.2,66.1 C27.9,66.1 27,65 27,63.9 L27,63.9 Z M30.5,63.9 C30.5,63.2 30,62.6 29.2,62.6 C28.5,62.6 28,63.2 28,63.9 C28,64.6 28.5,65.2 29.2,65.2 C30,65.2 30.5,64.6 30.5,63.9 L30.5,63.9 Z M25.4,59.5 C25.8,59.5 26.2,59.8 26.2,60.2 C26.2,60.6 25.9,61 25.5,61 L25.4,61 C25,61 24.7,60.6 24.7,60.2 C24.8,59.8 25.1,59.5 25.4,59.5 L25.4,59.5 Z M24.9,66 L25.9,66 L25.9,61.8 L24.9,61.8 L24.9,66 Z M24,66 C23.8,66 23.5,66.1 23.3,66.1 C22.8,66.1 21.9,66 21.9,64.6 L21.9,62.6 L21.2,62.6 L21.2,61.8 L21.9,61.8 L21.9,60.5 L22.9,60.5 L22.9,61.8 L23.9,61.8 L23.9,62.6 L22.9,62.6 L22.9,64.3 C22.9,65 23.1,65.1 23.5,65.1 L24,65.1 L24,66 Z M20.3,61.7 L20.3,66 L19.3,66 L19.3,65.4 C19,65.8 18.5,66.1 18,66.1 C16.7,66.1 15.8,65.1 15.8,63.9 C15.8,62.7 16.7,61.7 18,61.7 C18.5,61.7 19,62 19.3,62.4 L19.3,61.8 L20.3,61.7 Z M19.3,63.9 C19.3,63.2 18.8,62.6 18,62.6 C17.3,62.6 16.8,63.2 16.8,63.9 C16.8,64.6 17.3,65.2 18,65.2 C18.8,65.2 19.3,64.6 19.3,63.9 L19.3,63.9 Z M14,63.3 C13.9,62.8 13.7,62.5 13,62.5 C12.2,62.5 11.9,63.1 11.9,63.8 C11.9,64.5 12.2,65.1 13.1,65.1 C13.7,65.1 13.9,64.8 14,64.4 L15,64.4 C14.9,65.3 14.2,66 13,66 C11.6,66 10.9,64.9 10.9,63.8 C10.9,62.7 11.6,61.6 13,61.6 C14.4,61.6 14.9,62.4 15,63.3 L14,63.3 Z M5.5,63.9 C5.5,62.7 6.4,61.7 7.7,61.7 C9.1,61.7 9.9,62.7 9.9,63.9 C9.9,65.1 9,66.1 7.7,66.1 C6.4,66.1 5.5,65 5.5,63.9 L5.5,63.9 Z M9,63.9 C9,63.2 8.5,62.6 7.7,62.6 C7,62.6 6.5,63.2 6.5,63.9 C6.5,64.6 7,65.2 7.7,65.2 C8.5,65.2 9,64.6 9,63.9 L9,63.9 Z M3.2,66 L2.5,66 L0.3,59.6 L1.4,59.6 L2.9,64.2 L4.4,59.6 L5.5,59.6 L3.2,66 Z M136.6,55.7 C136.6,56.4 136.4,56.9 136,57.2 C135.6,57.5 135,57.7 134.3,57.7 C133.6,57.7 133.1,57.5 132.7,57.2 C132.4,56.9 132.2,56.5 132.1,56 L133.1,56 C133.2,56.5 133.5,56.9 134.2,56.9 C135,56.9 135.5,56.6 135.5,55.8 L135.5,55 C135.2,55.4 134.7,55.7 134.2,55.7 C132.9,55.7 132,54.7 132,53.5 C132,52.3 132.9,51.3 134.2,51.3 C134.7,51.3 135.2,51.6 135.5,52 L135.5,51.4 L136.5,51.4 C136.6,51.3 136.6,55.7 136.6,55.7 L136.6,55.7 Z M133.1,53.4 C133.1,54.1 133.6,54.7 134.3,54.7 C135.1,54.7 135.6,54.1 135.6,53.4 C135.6,52.7 135.1,52.1 134.3,52.1 C133.6,52.1 133.1,52.7 133.1,53.4 L133.1,53.4 Z M127.1,51.3 L128.1,51.3 L128.1,51.9 C128.4,51.4 128.9,51.2 129.5,51.2 C130.1,51.2 130.5,51.4 130.8,51.8 C131,52.1 131.1,52.5 131.1,53.1 L131.1,55.6 L130.1,55.6 L130.1,53.4 C130.1,52.7 129.9,52.1 129.2,52.1 C128.5,52.1 128.2,52.7 128.2,53.4 L128.2,55.6 L127.2,55.6 C127.1,55.5 127.1,51.3 127.1,51.3 L127.1,51.3 Z M125.7,51.3 L125.7,55.5 L124.7,55.5 L124.7,54.9 C124.4,55.4 123.9,55.6 123.3,55.6 C122.7,55.6 122.3,55.4 122,55 C121.8,54.7 121.7,54.3 121.7,53.7 L121.7,51.2 L122.7,51.2 L122.7,53.4 C122.7,54.1 122.9,54.7 123.6,54.7 C124.3,54.7 124.6,54.1 124.6,53.4 L124.6,51.2 C124.7,51.3 125.7,51.3 125.7,51.3 L125.7,51.3 Z M121,55.5 C120.8,55.5 120.5,55.6 120.3,55.6 C119.8,55.6 118.9,55.5 118.9,54.1 L118.9,52.1 L118.2,52.1 L118.2,51.3 L118.9,51.3 L118.9,50 L119.9,50 L119.9,51.3 L120.9,51.3 L120.9,52.1 L119.9,52.1 L119.9,53.8 C119.9,54.5 120.1,54.6 120.5,54.6 L121,54.6 L121,55.5 Z M116.2,55.5 L117.2,55.5 L117.2,49.1 L116.2,49.1 L116.2,55.5 Z M114.8,51.3 L114.8,55.5 L113.8,55.5 L113.8,55 C113.5,55.4 113,55.7 112.5,55.7 C111.2,55.7 110.3,54.7 110.3,53.5 C110.3,52.3 111.2,51.3 112.5,51.3 C113,51.3 113.5,51.6 113.8,52 L113.8,51.4 C113.8,51.3 114.8,51.3 114.8,51.3 L114.8,51.3 Z M113.8,53.4 C113.8,52.7 113.3,52.1 112.5,52.1 C111.8,52.1 111.3,52.7 111.3,53.4 C111.3,54.1 111.8,54.7 112.5,54.7 C113.3,54.8 113.8,54.1 113.8,53.4 L113.8,53.4 Z M109.7,55.5 C109.5,55.5 109.2,55.6 109,55.6 C108.5,55.6 107.6,55.5 107.6,54.1 L107.6,52.1 L106.9,52.1 L106.9,51.3 L107.6,51.3 L107.6,50 L108.6,50 L108.6,51.3 L109.6,51.3 L109.6,52.1 L108.6,52.1 L108.6,53.8 C108.6,54.5 108.8,54.6 109.2,54.6 L109.7,54.6 L109.7,55.5 Z M106.2,54.3 C106.2,55.2 105.4,55.6 104.5,55.6 C103.6,55.6 102.8,55.1 102.8,54.1 L103.8,54.1 C103.8,54.7 104.1,54.9 104.6,54.9 C105,54.9 105.3,54.8 105.3,54.4 C105.3,54 104.9,54 104,53.6 C103.4,53.4 103,53.2 103,52.4 C103,51.6 103.7,51.2 104.6,51.2 C105.5,51.2 106.2,51.8 106.2,52.6 L105.2,52.6 C105.2,52.2 105,51.9 104.5,51.9 C104.2,51.9 103.9,52.1 103.9,52.4 C103.9,52.8 104.3,52.8 105.1,53.1 C105.6,53.4 106.2,53.6 106.2,54.3 L106.2,54.3 Z M98.8,53.7 C98.8,54.3 99.1,54.8 99.9,54.8 C100.5,54.8 100.7,54.5 100.8,54.2 L101.8,54.2 C101.7,54.9 101,55.6 99.9,55.6 C98.5,55.6 97.8,54.6 97.8,53.4 C97.8,52.1 98.6,51.2 99.9,51.2 C101,51.2 101.9,52 101.9,53.1 L101.9,53.7 L98.8,53.7 Z M98.8,53 L100.9,53 C100.9,52.4 100.5,52 99.9,52 C99.3,51.9 98.8,52.3 98.8,53 L98.8,53 Z M94.1,52.3 L97.1,52.3 L97.1,53.2 L96.4,53.2 C96.1,54.6 95.1,55.6 93.3,55.6 C91.2,55.6 90,54 90,52.3 C90,50.6 91.3,49 93.3,49 C94.8,49 95.9,49.9 96,51.1 L95,51.1 C94.9,50.5 94.2,50 93.3,50 C91.9,50 91.1,51.2 91.1,52.4 C91.1,53.6 91.9,54.8 93.4,54.8 C94.5,54.8 95.1,54.1 95.3,53.3 L94.1,53.3 C94.1,53.3 94.1,52.3 94.1,52.3 L94.1,52.3 Z M87.5,52.2 L87.1,52.2 C86.3,52.2 85.8,52.7 85.8,53.7 L85.8,55.5 L84.8,55.5 L84.8,51.3 L85.8,51.3 L85.8,52 C86,51.6 86.5,51.3 87.1,51.3 C87.3,51.3 87.4,51.3 87.5,51.4 L87.5,52.2 Z M83.4,55.5 L82.4,55.5 L82.4,54.9 C82.1,55.4 81.6,55.6 81,55.6 C80.4,55.6 80,55.4 79.7,55 C79.5,54.7 79.4,54.3 79.4,53.7 L79.4,51.2 L80.4,51.2 L80.4,53.4 C80.4,54.1 80.6,54.7 81.3,54.7 C82,54.7 82.3,54.1 82.3,53.4 L82.3,51.2 L83.3,51.2 L83.3,55.5 L83.4,55.5 Z M80.4,49.2 C80.8,49.2 81.1,49.5 81.1,49.9 C81.1,50.3 80.8,50.6 80.4,50.6 C80,50.6 79.7,50.3 79.7,49.9 C79.7,49.5 80,49.2 80.4,49.2 L80.4,49.2 Z M78.7,50.1 C78.6,50.1 78.4,50 78.3,50 C78,50 77.6,50 77.6,50.7 L77.6,51.3 L78.7,51.3 L78.7,52.1 L77.6,52.1 L77.6,55.5 L76.6,55.5 L76.6,52.1 L75.7,52.1 L75.7,51.3 L76.6,51.3 L76.6,50.8 C76.6,49.2 77.6,49.1 78.1,49.1 C78.4,49.1 78.6,49.2 78.7,49.2 L78.7,50.1 Z M70,53.7 C70,54.3 70.3,54.8 71.1,54.8 C71.7,54.8 71.9,54.5 72,54.2 L73,54.2 C72.9,54.9 72.2,55.6 71.1,55.6 C69.7,55.6 69,54.6 69,53.4 C69,52.1 69.8,51.2 71.1,51.2 C72.2,51.2 73.1,52 73.1,53.1 L73.1,53.7 L70,53.7 Z M70,53 L72.1,53 C72.1,52.4 71.7,52 71.1,52 C70.4,51.9 70,52.3 70,53 L70,53 Z M66.9,55.5 L67.9,55.5 L67.9,49.1 L66.9,49.1 L66.9,55.5 Z M65.5,51.3 L65.5,55.5 L64.5,55.5 L64.5,54.9 C64.2,55.4 63.7,55.6 63.1,55.6 C62.5,55.6 62.1,55.4 61.8,55 C61.6,54.7 61.5,54.3 61.5,53.7 L61.5,51.2 L62.5,51.2 L62.5,53.4 C62.5,54.1 62.7,54.7 63.4,54.7 C64.1,54.7 64.4,54.1 64.4,53.4 L64.4,51.2 L65.5,51.2 L65.5,51.3 Z M56.4,49.2 L57.4,49.2 L57.4,51.9 C57.7,51.4 58.2,51.2 58.8,51.2 C59.4,51.2 59.8,51.4 60.1,51.8 C60.3,52.1 60.4,52.5 60.4,53.1 L60.4,55.6 L59.4,55.6 L59.4,53.4 C59.4,52.7 59.2,52.1 58.5,52.1 C57.8,52.1 57.5,52.7 57.5,53.4 L57.5,55.6 L56.5,55.6 L56.5,49.2 L56.4,49.2 Z M54.2,52.8 C54.1,52.3 53.9,52 53.2,52 C52.4,52 52.1,52.6 52.1,53.3 C52.1,54 52.4,54.6 53.3,54.6 C53.9,54.6 54.1,54.3 54.2,53.9 L55.2,53.9 C55.1,54.8 54.4,55.5 53.2,55.5 C51.8,55.5 51.1,54.4 51.1,53.3 C51.1,52.2 51.8,51.1 53.2,51.1 C54.6,51.1 55.1,51.9 55.2,52.8 C55.2,52.8 54.2,52.8 54.2,52.8 L54.2,52.8 Z M50.2,54.3 C50.2,55.2 49.4,55.6 48.5,55.6 C47.6,55.6 46.8,55.1 46.8,54.1 L47.8,54.1 C47.8,54.7 48.1,54.9 48.6,54.9 C49,54.9 49.3,54.8 49.3,54.4 C49.3,54 48.9,54 48,53.6 C47.4,53.4 47,53.2 47,52.4 C47,51.6 47.7,51.2 48.6,51.2 C49.5,51.2 50.2,51.8 50.2,52.6 L49.2,52.6 C49.2,52.2 49,51.9 48.5,51.9 C48.2,51.9 47.9,52.1 47.9,52.4 C47.9,52.8 48.3,52.8 49.1,53.1 C49.7,53.4 50.2,53.6 50.2,54.3 L50.2,54.3 Z M41.9,49.2 L42.9,49.2 L42.9,51.9 C43.2,51.4 43.7,51.2 44.3,51.2 C44.9,51.2 45.3,51.4 45.6,51.8 C45.8,52.1 45.9,52.5 45.9,53.1 L45.9,55.6 L44.9,55.6 L44.9,53.4 C44.9,52.7 44.7,52.1 44,52.1 C43.3,52.1 43,52.7 43,53.4 L43,55.6 L42,55.6 L42,49.2 L41.9,49.2 Z M39.7,52.8 C39.6,52.3 39.4,52 38.7,52 C37.9,52 37.6,52.6 37.6,53.3 C37.6,54 37.9,54.6 38.8,54.6 C39.4,54.6 39.6,54.3 39.7,53.9 L40.7,53.9 C40.6,54.8 39.9,55.5 38.7,55.5 C37.3,55.5 36.6,54.4 36.6,53.3 C36.6,52.2 37.3,51.1 38.7,51.1 C40.1,51.1 40.6,51.9 40.7,52.8 L39.7,52.8 Z M35.5,51.3 L35.5,55.5 L34.5,55.5 L34.5,55 C34.2,55.4 33.7,55.7 33.2,55.7 C31.9,55.7 31,54.7 31,53.5 C31,52.3 31.9,51.3 33.2,51.3 C33.7,51.3 34.2,51.6 34.5,52 L34.5,51.4 L35.5,51.3 Z M34.5,53.4 C34.5,52.7 34,52.1 33.2,52.1 C32.5,52.1 32,52.7 32,53.4 C32,54.1 32.5,54.7 33.2,54.7 C34,54.8 34.5,54.1 34.5,53.4 L34.5,53.4 Z M30.4,50.1 C30.3,50 30.1,50 30,50 C29.7,50 29.3,50 29.3,50.7 L29.3,51.3 L30.4,51.3 L30.4,52.1 L29.3,52.1 L29.3,55.5 L28.3,55.5 L28.3,52.1 L27.4,52.1 L27.4,51.3 L28.3,51.3 L28.3,50.8 C28.3,49.2 29.3,49.1 29.8,49.1 C30.1,49.1 30.3,49.2 30.4,49.2 L30.4,50.1 Z M26.8,54.3 C26.8,55.2 26,55.6 25.1,55.6 C24.2,55.6 23.4,55.1 23.4,54.1 L24.4,54.1 C24.4,54.7 24.7,54.9 25.2,54.9 C25.6,54.9 25.9,54.8 25.9,54.4 C25.9,54 25.5,54 24.6,53.6 C24,53.4 23.6,53.2 23.6,52.4 C23.6,51.6 24.3,51.2 25.2,51.2 C26.1,51.2 26.8,51.8 26.8,52.6 L25.8,52.6 C25.8,52.2 25.6,51.9 25.1,51.9 C24.8,51.9 24.5,52.1 24.5,52.4 C24.5,52.8 24.9,52.8 25.7,53.1 C26.2,53.4 26.8,53.6 26.8,54.3 L26.8,54.3 Z M22.7,50.1 C22.6,50.1 22.4,50 22.3,50 C22,50 21.6,50 21.6,50.7 L21.6,51.3 L22.7,51.3 L22.7,52.1 L21.6,52.1 L21.6,55.5 L20.6,55.5 L20.6,52.1 L19.7,52.1 L19.7,51.3 L20.6,51.3 L20.6,50.8 C20.6,49.2 21.6,49.1 22.1,49.1 C22.4,49.1 22.6,49.2 22.7,49.2 L22.7,50.1 Z M18.8,51.3 L18.8,55.5 L17.8,55.5 L17.8,54.9 C17.5,55.4 17,55.6 16.4,55.6 C15.8,55.6 15.4,55.4 15.1,55 C14.9,54.7 14.8,54.3 14.8,53.7 L14.8,51.2 L15.8,51.2 L15.8,53.4 C15.8,54.1 16,54.7 16.7,54.7 C17.4,54.7 17.7,54.1 17.7,53.4 L17.7,51.2 C17.8,51.3 18.8,51.3 18.8,51.3 L18.8,51.3 Z M14.1,52.2 L13.7,52.2 C12.9,52.2 12.4,52.7 12.4,53.7 L12.4,55.5 L11.4,55.5 L11.4,51.3 L12.4,51.3 L12.4,52 C12.6,51.6 13.1,51.3 13.7,51.3 C13.9,51.3 14,51.3 14.1,51.4 L14.1,52.2 Z M7.2,53.7 C7.2,54.3 7.5,54.8 8.3,54.8 C8.9,54.8 9.1,54.5 9.2,54.2 L10.2,54.2 C10.1,54.9 9.4,55.6 8.3,55.6 C6.9,55.6 6.2,54.6 6.2,53.4 C6.2,52.1 7,51.2 8.3,51.2 C9.4,51.2 10.3,52 10.3,53.1 L10.3,53.7 L7.2,53.7 Z M7.2,53 L9.3,53 C9.3,52.4 8.9,52 8.3,52 C7.6,51.9 7.2,52.3 7.2,53 L7.2,53 Z M0.9,49.2 L3.1,49.2 C4.8,49.2 5.1,50.3 5.1,50.9 C5.1,51.7 4.5,52.2 4,52.3 C4.4,52.3 5.2,52.8 5.2,53.7 C5.2,54.4 4.9,55.5 3.1,55.5 L0.9,55.5 L0.9,49.2 Z M3.1,51.8 C4,51.8 4.1,51.2 4.1,50.9 C4.1,50.6 4,50 3.1,50 L2,50 L2,51.7 C2,51.8 3.1,51.8 3.1,51.8 L3.1,51.8 Z M2,52.8 L2,54.6 L3.2,54.6 C4.1,54.6 4.2,54.1 4.2,53.7 C4.2,53.4 4,52.8 3.2,52.8 L2,52.8 Z M163.2,43.9 C163.2,44.8 162.4,45.2 161.5,45.2 C160.6,45.2 159.8,44.7 159.8,43.7 L160.8,43.7 C160.8,44.3 161.1,44.5 161.6,44.5 C162,44.5 162.3,44.4 162.3,44 C162.3,43.6 161.9,43.6 161,43.2 C160.4,43 160,42.8 160,42 C160,41.2 160.7,40.8 161.6,40.8 C162.5,40.8 163.2,41.4 163.2,42.2 L162.2,42.2 C162.2,41.8 162,41.5 161.5,41.5 C161.2,41.5 160.9,41.7 160.9,42 C160.9,42.4 161.3,42.4 162.1,42.7 C162.6,42.9 163.2,43.1 163.2,43.9 L163.2,43.9 Z M155.8,43.3 C155.8,43.9 156.1,44.4 156.9,44.4 C157.5,44.4 157.7,44.1 157.8,43.8 L158.8,43.8 C158.7,44.5 158,45.2 156.9,45.2 C155.5,45.2 154.8,44.2 154.8,43 C154.8,41.7 155.6,40.8 156.9,40.8 C158,40.8 158.9,41.6 158.9,42.7 L158.9,43.3 L155.8,43.3 Z M156,40.6 L155.5,39.8 L157.8,38.6 L158.3,39.4 L156,40.6 Z M155.8,42.5 L157.9,42.5 C157.9,41.9 157.5,41.5 156.9,41.5 C156.3,41.5 155.8,41.8 155.8,42.5 L155.8,42.5 Z M153.7,40.8 L153.7,45 L152.7,45 L152.7,44.4 C152.4,44.9 151.9,45.1 151.3,45.1 C150.7,45.1 150.3,44.9 150,44.5 C149.8,44.2 149.7,43.8 149.7,43.2 L149.7,40.7 L150.7,40.7 L150.7,43 C150.7,43.7 150.9,44.3 151.6,44.3 C152.3,44.3 152.6,43.7 152.6,43 L152.6,40.8 L153.7,40.8 Z M147.4,40.9 L148.4,40.9 L148.4,47.3 L147.4,47.3 L147.4,44.6 C147.1,45 146.6,45.3 146.1,45.3 C144.8,45.3 143.9,44.3 143.9,43.1 C143.9,41.9 144.8,40.9 146.1,40.9 C146.6,40.9 147.1,41.2 147.4,41.6 L147.4,40.9 Z M144.9,43 C144.9,43.7 145.4,44.3 146.1,44.3 C146.9,44.3 147.4,43.7 147.4,43 C147.4,42.3 146.9,41.7 146.1,41.7 C145.4,41.6 144.9,42.2 144.9,43 L144.9,43 Z M142.4,38.6 C142.8,38.6 143.1,38.9 143.1,39.3 C143.1,39.7 142.8,40 142.4,40 C142,40 141.7,39.7 141.7,39.3 C141.6,38.9 141.9,38.6 142.4,38.6 L142.4,38.6 Z M141.9,45.1 L142.9,45.1 L142.9,40.9 L141.9,40.9 L141.9,45.1 Z M139.5,45.1 L140.5,45.1 L140.5,38.7 L139.5,38.7 L139.5,45.1 Z M134.9,41.4 C135.2,41 135.7,40.7 136.2,40.7 C137.5,40.7 138.4,41.7 138.4,42.9 C138.4,44.1 137.5,45.1 136.2,45.1 C135.7,45.1 135.2,44.8 134.9,44.4 L134.9,47.1 L133.9,47.1 L133.9,40.7 L134.9,40.7 L134.9,41.4 Z M134.9,43 C134.9,43.7 135.4,44.3 136.2,44.3 C136.9,44.3 137.4,43.7 137.4,43 C137.4,42.3 136.9,41.7 136.2,41.7 C135.4,41.6 134.9,42.2 134.9,43 L134.9,43 Z M129.3,41.4 C129.6,41 130.1,40.7 130.6,40.7 C131.9,40.7 132.8,41.7 132.8,42.9 C132.8,44.1 131.9,45.1 130.6,45.1 C130.1,45.1 129.6,44.8 129.3,44.4 L129.3,47.1 L128.3,47.1 L128.3,40.7 L129.3,40.7 L129.3,41.4 Z M129.3,43 C129.3,43.7 129.8,44.3 130.6,44.3 C131.3,44.3 131.8,43.7 131.8,43 C131.8,42.3 131.3,41.7 130.6,41.7 C129.8,41.6 129.3,42.2 129.3,43 L129.3,43 Z M126.9,40.9 L126.9,45.1 L125.9,45.1 L125.9,44.5 C125.6,44.9 125.1,45.2 124.6,45.2 C123.3,45.2 122.4,44.2 122.4,43 C122.4,41.8 123.3,40.8 124.6,40.8 C125.1,40.8 125.6,41.1 125.9,41.5 L125.9,40.9 C125.9,40.9 126.9,40.9 126.9,40.9 L126.9,40.9 Z M125.9,43 C125.9,42.3 125.4,41.7 124.6,41.7 C123.9,41.7 123.4,42.3 123.4,43 C123.4,43.7 123.9,44.3 124.6,44.3 C125.4,44.3 125.9,43.7 125.9,43 L125.9,43 Z M119.6,43.9 C119.6,44.8 118.8,45.2 117.9,45.2 C117,45.2 116.2,44.7 116.2,43.7 L117.2,43.7 C117.2,44.3 117.5,44.5 118,44.5 C118.4,44.5 118.7,44.4 118.7,44 C118.7,43.6 118.3,43.6 117.4,43.2 C116.8,43 116.4,42.8 116.4,42 C116.4,41.2 117.1,40.8 118,40.8 C118.9,40.8 119.6,41.4 119.6,42.2 L118.6,42.2 C118.6,41.8 118.4,41.5 117.9,41.5 C117.6,41.5 117.3,41.7 117.3,42 C117.3,42.4 117.7,42.4 118.5,42.7 C119,42.9 119.6,43.1 119.6,43.9 L119.6,43.9 Z M115.5,45.1 C115.3,45.1 115,45.2 114.8,45.2 C114.3,45.2 113.4,45.1 113.4,43.7 L113.4,41.7 L112.7,41.7 L112.7,40.9 L113.4,40.9 L113.4,39.6 L114.4,39.6 L114.4,40.9 L115.4,40.9 L115.4,41.7 L114.4,41.7 L114.4,43.4 C114.4,44.1 114.6,44.2 115,44.2 L115.5,44.2 L115.5,45.1 Z M112.1,41.8 L111.7,41.8 C110.9,41.8 110.4,42.3 110.4,43.3 L110.4,45.1 L109.4,45.1 L109.4,40.9 L110.4,40.9 L110.4,41.6 C110.6,41.2 111.1,40.9 111.7,40.9 C111.9,40.9 112,40.9 112.1,41 L112.1,41.8 Z M108,40.9 L108,45.1 L107,45.1 L107,44.5 C106.7,44.9 106.2,45.2 105.7,45.2 C104.4,45.2 103.5,44.2 103.5,43 C103.5,41.8 104.4,40.8 105.7,40.8 C106.2,40.8 106.7,41.1 107,41.5 L107,40.9 C107,40.9 108,40.9 108,40.9 L108,40.9 Z M107,43 C107,42.3 106.5,41.7 105.7,41.7 C105,41.7 104.5,42.3 104.5,43 C104.5,43.7 105,44.3 105.7,44.3 C106.5,44.3 107,43.7 107,43 L107,43 Z M96.6,40.8 L97.6,40.8 L97.6,41.4 C97.9,40.9 98.4,40.7 99,40.7 C99.6,40.7 100,40.9 100.3,41.3 C100.5,41.6 100.6,42 100.6,42.6 L100.6,45.1 L99.6,45.1 L99.6,42.9 C99.6,42.2 99.4,41.6 98.7,41.6 C98,41.6 97.7,42.2 97.7,42.9 L97.7,45.1 L96.7,45.1 L96.7,40.8 L96.6,40.8 Z M92.3,43.3 C92.3,43.9 92.6,44.4 93.4,44.4 C94,44.4 94.2,44.1 94.3,43.8 L95.3,43.8 C95.2,44.5 94.5,45.2 93.4,45.2 C92,45.2 91.3,44.2 91.3,43 C91.3,41.7 92.1,40.8 93.4,40.8 C94.5,40.8 95.4,41.6 95.4,42.7 L95.4,43.3 L92.3,43.3 Z M92.3,42.5 L94.4,42.5 C94.4,41.9 94,41.5 93.4,41.5 C92.8,41.5 92.3,41.8 92.3,42.5 L92.3,42.5 Z M85.4,43.3 C85.4,43.9 85.7,44.4 86.5,44.4 C87.1,44.4 87.3,44.1 87.4,43.8 L88.4,43.8 C88.3,44.5 87.6,45.2 86.5,45.2 C85.1,45.2 84.4,44.2 84.4,43 C84.4,41.7 85.2,40.8 86.5,40.8 C87.6,40.8 88.5,41.6 88.5,42.7 L88.5,43.3 L85.4,43.3 Z M85.4,42.5 L87.5,42.5 C87.5,41.9 87.1,41.5 86.5,41.5 C85.9,41.5 85.4,41.8 85.4,42.5 L85.4,42.5 Z M82.3,45.1 L83.3,45.1 L83.3,38.7 L82.3,38.7 L82.3,45.1 Z M79.9,45.1 L80.9,45.1 L80.9,38.7 L79.9,38.7 L79.9,45.1 Z M75.7,43.3 C75.7,43.9 76,44.4 76.8,44.4 C77.4,44.4 77.6,44.1 77.7,43.8 L78.7,43.8 C78.6,44.5 77.9,45.2 76.8,45.2 C75.4,45.2 74.7,44.2 74.7,43 C74.7,41.7 75.5,40.8 76.8,40.8 C77.9,40.8 78.8,41.6 78.8,42.7 L78.8,43.3 L75.7,43.3 Z M75.7,42.5 L77.8,42.5 C77.8,41.9 77.4,41.5 76.8,41.5 C76.2,41.5 75.7,41.8 75.7,42.5 L75.7,42.5 Z M69.7,40.8 L70.7,40.8 L70.7,41.4 C71,40.9 71.5,40.7 72.1,40.7 C72.7,40.7 73.1,40.9 73.4,41.3 C73.6,41.6 73.7,42 73.7,42.6 L73.7,45.1 L72.7,45.1 L72.7,42.9 C72.7,42.2 72.5,41.6 71.8,41.6 C71.1,41.6 70.8,42.2 70.8,42.9 L70.8,45.1 L69.8,45.1 L69.8,40.8 L69.7,40.8 Z M64.4,40.8 L65.4,40.8 L65.4,41.4 C65.7,40.9 66.2,40.7 66.8,40.7 C67.4,40.7 67.8,40.9 68.1,41.3 C68.3,41.6 68.4,42 68.4,42.6 L68.4,45.1 L67.4,45.1 L67.4,42.9 C67.4,42.2 67.2,41.6 66.5,41.6 C65.8,41.6 65.5,42.2 65.5,42.9 L65.5,45.1 L64.5,45.1 L64.5,40.8 L64.4,40.8 Z M58.8,43 C58.8,41.8 59.7,40.8 61,40.8 C62.4,40.8 63.2,41.8 63.2,43 C63.2,44.2 62.3,45.2 61,45.2 C59.7,45.2 58.8,44.2 58.8,43 L58.8,43 Z M62.3,43 C62.3,42.3 61.8,41.7 61,41.7 C60.3,41.7 59.8,42.3 59.8,43 C59.8,43.7 60.3,44.3 61,44.3 C61.8,44.3 62.3,43.7 62.3,43 L62.3,43 Z M57.3,38.6 C57.7,38.6 58,38.9 58,39.3 C58,39.7 57.7,40 57.3,40 C56.9,40 56.6,39.7 56.6,39.3 C56.6,38.9 56.9,38.6 57.3,38.6 L57.3,38.6 Z M56.8,45.1 L57.8,45.1 L57.8,40.9 L56.8,40.9 L56.8,45.1 Z M55.6,43.9 C55.6,44.8 54.8,45.2 53.9,45.2 C53,45.2 52.2,44.7 52.2,43.7 L53.2,43.7 C53.2,44.3 53.5,44.5 54,44.5 C54.4,44.5 54.7,44.4 54.7,44 C54.7,43.6 54.3,43.6 53.4,43.2 C52.8,43 52.4,42.8 52.4,42 C52.4,41.2 53.1,40.8 54,40.8 C54.9,40.8 55.6,41.4 55.6,42.2 L54.6,42.2 C54.6,41.8 54.4,41.5 53.9,41.5 C53.6,41.5 53.3,41.7 53.3,42 C53.3,42.4 53.7,42.4 54.5,42.7 C55.1,42.9 55.6,43.1 55.6,43.9 L55.6,43.9 Z M51.3,43.9 C51.3,44.8 50.5,45.2 49.6,45.2 C48.7,45.2 47.9,44.7 47.9,43.7 L48.9,43.7 C48.9,44.3 49.2,44.5 49.7,44.5 C50.1,44.5 50.4,44.4 50.4,44 C50.4,43.6 50,43.6 49.1,43.2 C48.5,43 48.1,42.8 48.1,42 C48.1,41.2 48.8,40.8 49.7,40.8 C50.6,40.8 51.3,41.4 51.3,42.2 L50.3,42.2 C50.3,41.8 50.1,41.5 49.6,41.5 C49.3,41.5 49,41.7 49,42 C49,42.4 49.4,42.4 50.2,42.7 C50.8,42.9 51.3,43.1 51.3,43.9 L51.3,43.9 Z M44,43.3 C44,43.9 44.3,44.4 45.1,44.4 C45.7,44.4 45.9,44.1 46,43.8 L47,43.8 C46.9,44.5 46.2,45.2 45.1,45.2 C43.7,45.2 43,44.2 43,43 C43,41.7 43.8,40.8 45.1,40.8 C46.2,40.8 47.1,41.6 47.1,42.7 L47.1,43.3 L44,43.3 Z M44,42.5 L46.1,42.5 C46.1,41.9 45.7,41.5 45.1,41.5 C44.5,41.5 44,41.8 44,42.5 L44,42.5 Z M42.4,39.6 C42.3,39.6 42.1,39.5 42,39.5 C41.7,39.5 41.3,39.5 41.3,40.2 L41.3,40.8 L42.4,40.8 L42.4,41.6 L41.3,41.6 L41.3,45 L40.3,45 L40.3,41.6 L39.4,41.6 L39.4,40.8 L40.3,40.8 L40.3,40.3 C40.3,38.7 41.3,38.6 41.8,38.6 C42.1,38.6 42.3,38.7 42.4,38.7 C42.4,38.8 42.4,39.6 42.4,39.6 L42.4,39.6 Z M34.4,43 C34.4,41.8 35.3,40.8 36.6,40.8 C38,40.8 38.8,41.8 38.8,43 C38.8,44.2 37.9,45.2 36.6,45.2 C35.2,45.2 34.4,44.2 34.4,43 L34.4,43 Z M37.8,43 C37.8,42.3 37.3,41.7 36.5,41.7 C35.8,41.7 35.3,42.3 35.3,43 C35.3,43.7 35.8,44.3 36.5,44.3 C37.3,44.3 37.8,43.7 37.8,43 L37.8,43 Z M33.8,41.8 L33.4,41.8 C32.6,41.8 32.1,42.3 32.1,43.3 L32.1,45.1 L31.1,45.1 L31.1,40.9 L32.1,40.9 L32.1,41.6 C32.3,41.2 32.8,40.9 33.4,40.9 C33.6,40.9 33.7,40.9 33.8,41 L33.8,41.8 Z M26.5,41.4 C26.8,41 27.3,40.7 27.8,40.7 C29.1,40.7 30,41.7 30,42.9 C30,44.1 29.1,45.1 27.8,45.1 C27.3,45.1 26.8,44.8 26.5,44.4 L26.5,47.1 L25.5,47.1 L25.5,40.7 L26.5,40.7 L26.5,41.4 Z M26.5,43 C26.5,43.7 27,44.3 27.8,44.3 C28.5,44.3 29,43.7 29,43 C29,42.3 28.5,41.7 27.8,41.7 C27,41.6 26.5,42.2 26.5,43 L26.5,43 Z M19.3,43.3 C19.3,43.9 19.6,44.4 20.4,44.4 C21,44.4 21.2,44.1 21.3,43.8 L22.3,43.8 C22.2,44.5 21.5,45.2 20.4,45.2 C19,45.2 18.3,44.2 18.3,43 C18.3,41.7 19.1,40.8 20.4,40.8 C21.5,40.8 22.4,41.6 22.4,42.7 L22.4,43.3 L19.3,43.3 Z M19.3,42.5 L21.4,42.5 C21.4,41.9 21,41.5 20.4,41.5 C19.8,41.5 19.3,41.8 19.3,42.5 L19.3,42.5 Z M16.2,45.1 L17.2,45.1 L17.2,38.7 L16.2,38.7 L16.2,45.1 Z" id="Fill-4"></path>
                            <path d="M34,25.7 L34.8,27.4 L72.6,27.4 L72.6,25.7 L34,25.7 Z M31.7,25.7 L0.5,25.7 L0.5,27.4 L32.4,27.4 L31.7,25.7 Z M57.9,23.2 L57.9,7.8 L61.5,7.8 L61.5,10 C62.5,8.3 64.2,7.4 66.5,7.4 C68.7,7.4 70.2,8.2 71.1,9.5 C71.9,10.7 72.1,11.9 72.1,14.1 L72.1,23.3 L68.5,23.3 L68.5,15.3 C68.5,12.7 67.7,10.6 65.2,10.6 C62.7,10.6 61.5,12.6 61.5,15.3 L61.5,23.3 C61.6,23.2 57.9,23.2 57.9,23.2 L57.9,23.2 Z M47.1,7.4 C52,7.4 55.3,11.1 55.3,15.5 C55.3,19.9 52.1,23.6 47.1,23.6 C42.2,23.6 39,19.9 39,15.5 C39,11.2 42.2,7.4 47.1,7.4 L47.1,7.4 Z M47.1,20.4 C49.8,20.4 51.7,18.1 51.7,15.5 C51.7,12.9 49.9,10.6 47.1,10.6 C44.4,10.6 42.6,12.9 42.6,15.5 C42.6,18.2 44.4,20.4 47.1,20.4 L47.1,20.4 Z" id="Fill-6"></path>
                        </g>
                    </g>
                </g>
            </g>
        </g>
    </g>
</svg>