<?xml version="1.0" encoding="UTF-8"?>
<svg width="69px" height="68px" viewBox="0 0 69 68" version="1.1" xmlns="http://www.w3.org/2000/svg" xmlns:xlink="http://www.w3.org/1999/xlink">
    <title>Group 48</title>
    <defs>
        <polygon id="path-1" points="0 68 69 68 69 0 0 0"></polygon>
    </defs>
    <g id="Page-1" stroke="none" stroke-width="1" fill="none" fill-rule="evenodd">
        <g id="Desktop_Homepage" transform="translate(-15.000000, -4863.000000)">
            <g id="footer" transform="translate(-29.000000, 4833.000000)">
                <g id="partenaire" transform="translate(29.000000, 0.000000)">
                    <g id="Group-48" transform="translate(15.000000, 30.000000)">
                        <path d="M1,32.5952324 L1,34 C5.1158944,32.9698371 9.51241797,30.4412555 11.9445374,28.1936274 C13.5347693,26.6952086 14.9379151,24.9158364 16.0604318,22.8555106 C16.0604318,22.8555106 16.1539748,22.7618594 16.1539748,22.6682082 C17.1829484,20.7951848 17.9312929,18.5475567 18.4925512,15.9253239 C19.9892401,8.7141837 17.7442068,1.50304349 17.2764915,0.566531778 C16.7152332,-0.0890264223 15.9668887,0.00462474921 15.4056304,0.00462474921 L15.0314582,0.00462474921 L1,0.00462474921 L1,16.4872309 L11.7574513,16.4872309 L12.0380804,16.4872309 C12.4122527,16.5808821 12.6928818,16.7681844 12.6928818,17.1427891 L12.6928818,17.4237426 C12.6928818,20.7015336 11.1026499,27.1634645 1.84188749,31.284116 L1,31.6587207 C1,31.6587207 1,32.5952324 1,32.5952324" id="Fill-1" fill="#FFFFFF"></path>
                        <polygon id="Fill-3" fill="#FFFFFF" points="1 42 5 42 5 42.5454545 1.82051282 42.5454545 1.82051282 44.1818182 4.79487179 44.1818182 4.79487179 44.7272727 1.82051282 44.7272727 1.82051282 46.4545455 5 46.4545455 5 47 1 47"></polygon>
                        <polygon id="Fill-5" fill="#FFFFFF" points="6.6 42.5357143 5 42.5357143 5 42 9 42 9 42.5357143 7.31111111 42.5357143 7.31111111 47 6.6 47"></polygon>
                        <path d="M9.53846154,44.9464286 L11.3653846,44.9464286 L10.5,42.625 L9.53846154,44.9464286 Z M10.1153846,42 L10.8846154,42 L13,47 L12.2307692,47 L11.6538462,45.4821429 L9.34615385,45.4821429 L8.76923077,47 L8,47 L10.1153846,42 Z" id="Fill-7" fill="#FFFFFF"></path>
                        <polygon id="Fill-9" fill="#FFFFFF" points="14.6888889 42.5357143 13 42.5357143 13 42 17 42 17 42.5357143 15.3111111 42.5357143 15.3111111 47 14.6888889 47"></polygon>
                        <path d="M20.6086957,46.4642857 L21.6521739,46.4642857 C22.0869565,46.4642857 23.3043478,46.375 23.3043478,44.5 C23.3043478,43.3392857 22.8695652,42.625 21.6521739,42.625 L20.5217391,42.625 L20.5217391,46.4642857 L20.6086957,46.4642857 Z M20,42 L21.6521739,42 C23.1304348,42 24,42.8035714 24,44.4107143 C24,46.1071429 23.3043478,47 21.6521739,47 L20,47 L20,42 Z" id="Fill-11" fill="#FFFFFF"></path>
                        <path d="M25,42 L29,42 L29,42.5454545 L25.8205128,42.5454545 L25.8205128,44.1818182 L28.7948718,44.1818182 L28.7948718,44.7272727 L25.8205128,44.7272727 L25.8205128,46.4545455 L29,46.4545455 L29,47 L25,47 C25,47 25,42 25,42" id="Fill-13" fill="#FFFFFF"></path>
                        <polygon id="Fill-15" fill="#FFFFFF" points="32 42 35 42 35 42.5357143 32.6486486 42.5357143 32.6486486 44.1428571 34.7567568 44.1428571 34.7567568 44.6785714 32.6486486 44.6785714 32.6486486 47 32.0810811 47 32.0810811 42"></polygon>
                        <path d="M38.0909091,44.3214286 C38.7272727,44.3214286 39.2727273,44.1428571 39.2727273,43.4285714 C39.2727273,42.9821429 39,42.5357143 38.3636364,42.5357143 L36.7272727,42.5357143 L36.7272727,44.2321429 L38.0909091,44.2321429 L38.0909091,44.3214286 Z M36,42 L38.3636364,42 C39.2727273,42 39.9090909,42.5357143 39.9090909,43.3392857 C39.9090909,43.9642857 39.6363636,44.4107143 39,44.5892857 C39.6363636,44.6785714 39.7272727,45.125 39.7272727,45.6607143 C39.7272727,46.1071429 39.7272727,46.7321429 40,47 L39.2727273,47 C39.0909091,46.8214286 39.1818182,46.2857143 39.0909091,45.75 C39,45.3035714 38.9090909,44.8571429 38.2727273,44.8571429 L36.7272727,44.8571429 L36.7272727,47 L36.0909091,47 L36.0909091,42 L36,42 Z" id="Fill-17" fill="#FFFFFF"></path>
                        <mask id="mask-2" fill="white">
                            <use xlink:href="#path-1"></use>
                        </mask>
                        <g id="Clip-20"></g>
                        <polygon id="Fill-19" fill="#FFFFFF" mask="url(#mask-2)" points="41.15 47 41.85 47 41.85 42 41.15 42"></polygon>
                        <path d="M43.7111111,46.4642857 L45.4,46.4642857 C45.9333333,46.4642857 46.2888889,46.1071429 46.2888889,45.5714286 C46.2888889,44.9464286 45.7555556,44.7678571 45.2222222,44.7678571 L43.7111111,44.7678571 L43.7111111,46.4642857 Z M43.7111111,44.1428571 L45.0444444,44.1428571 C45.7555556,44.1428571 46.1111111,43.875 46.1111111,43.3392857 C46.1111111,42.625 45.6666667,42.5357143 45.0444444,42.5357143 L43.7111111,42.5357143 L43.7111111,44.1428571 Z M43,42 L44.7777778,42 C45.2222222,42 45.7555556,42 46.1111111,42.1785714 C46.4666667,42.3571429 46.7333333,42.7142857 46.7333333,43.25 C46.7333333,43.7857143 46.4666667,44.1428571 46.0222222,44.4107143 C46.6444444,44.5 47,45.0357143 47,45.5714286 C47,46.2857143 46.4666667,47 45.4888889,47 L43.0888889,47 L43.0888889,42 L43,42 Z" id="Fill-21" fill="#FFFFFF" mask="url(#mask-2)"></path>
                        <path d="M50.5,46.4827586 C51.7962963,46.4827586 52.2592593,45.4482759 52.2592593,44.5 C52.2592593,43.5517241 51.7037037,42.5172414 50.5,42.5172414 C49.2037037,42.5172414 48.7407407,43.5517241 48.7407407,44.5 C48.7407407,45.4482759 49.2037037,46.4827586 50.5,46.4827586 M50.5,42 C52.1666667,42 53,43.2068966 53,44.5 C53,45.7931034 52.1666667,47 50.5,47 C48.8333333,47 48,45.7931034 48,44.5 C48,43.2068966 48.8333333,42 50.5,42" id="Fill-22" fill="#FFFFFF" mask="url(#mask-2)"></path>
                        <path d="M58,45.1034483 C58,46.3103448 57.2888889,47 56.0444444,47 C54.8,47 54,46.3965517 54,45.1034483 L54,42 L54.6222222,42 L54.6222222,45.1034483 C54.6222222,45.9655172 55.1555556,46.3965517 55.9555556,46.3965517 C56.7555556,46.3965517 57.2888889,45.9655172 57.2888889,45.1034483 L57.2888889,42 L58,42 L58,45.1034483 Z" id="Fill-23" fill="#FFFFFF" mask="url(#mask-2)"></path>
                        <path d="M62.0444444,44.3214286 C62.6666667,44.3214286 63.2,44.1428571 63.2,43.4285714 C63.2,42.9821429 62.9333333,42.5357143 62.3111111,42.5357143 L60.7111111,42.5357143 L60.7111111,44.2321429 L62.0444444,44.2321429 L62.0444444,44.3214286 Z M60,42 L62.4,42 C63.2888889,42 63.9111111,42.5357143 63.9111111,43.3392857 C63.9111111,43.9642857 63.6444444,44.4107143 63.0222222,44.5892857 C63.6444444,44.6785714 63.7333333,45.125 63.7333333,45.6607143 C63.7333333,46.1071429 63.7333333,46.7321429 64,47 L63.2888889,47 C63.1111111,46.8214286 63.2,46.2857143 63.1111111,45.75 C63.0222222,45.3035714 62.9333333,44.8571429 62.3111111,44.8571429 L60.7111111,44.8571429 L60.7111111,47 L60.0888889,47 L60.0888889,42 L60,42 Z" id="Fill-24" fill="#FFFFFF" mask="url(#mask-2)"></path>
                        <path d="M68.4117647,46.3103448 C68.0196078,46.8275862 67.3333333,47 66.6470588,47 C64.9803922,47 64,45.7931034 64,44.5862069 C64,43.2068966 64.8823529,42 66.6470588,42 C67.8235294,42 68.8039216,42.4310345 69,43.637931 L68.3137255,43.637931 C68.2156863,42.9482759 67.5294118,42.6034483 66.6470588,42.6034483 C65.2745098,42.6034483 64.7843137,43.637931 64.7843137,44.6724138 C64.7843137,45.7068966 65.4705882,46.5689655 66.6470588,46.5689655 C67.8235294,46.5689655 68.4117647,45.8793103 68.4117647,45.0172414 L66.6470588,45.0172414 L66.6470588,44.5 L69,44.5 L69,47 L68.5098039,47 L68.4117647,46.3103448 Z" id="Fill-25" fill="#FFFFFF" mask="url(#mask-2)"></path>
                        <path d="M4.2,53.7288136 C4.11111111,52.9152542 3.66666667,52.6101695 2.95555556,52.6101695 C2.42222222,52.6101695 1.8,52.8135593 1.8,53.6271186 C1.8,54.3389831 2.6,54.440678 3.4,54.6440678 C4.2,54.8474576 5,55.1525424 5,56.2711864 C5,57.4915254 3.93333333,58 3.04444444,58 C1.88888889,58 1,57.3898305 1,55.9661017 L1.62222222,55.9661017 C1.62222222,56.8813559 2.33333333,57.2881356 3.04444444,57.2881356 C3.66666667,57.2881356 4.28888889,57.0847458 4.28888889,56.2711864 C4.28888889,55.4576271 3.48888889,55.3559322 2.68888889,55.1525424 C1.88888889,54.9491525 1.08888889,54.6440678 1.08888889,53.6271186 C1.08888889,52.5084746 1.97777778,52 2.86666667,52 C3.84444444,52 4.64444444,52.5084746 4.73333333,53.8305085 L4.2,53.8305085 L4.2,53.7288136 Z" id="Fill-26" fill="#FFFFFF" mask="url(#mask-2)"></path>
                        <polygon id="Fill-27" fill="#FFFFFF" mask="url(#mask-2)" points="6.68888889 52.5357143 5 52.5357143 5 52 9 52 9 52.5357143 7.31111111 52.5357143 7.31111111 57 6.68888889 57"></polygon>
                        <path d="M9.53846154,54.9464286 L11.3653846,54.9464286 L10.5,52.625 L9.53846154,54.9464286 Z M10.1153846,52 L10.8846154,52 L13,57 L12.2307692,57 L11.6538462,55.4821429 L9.34615385,55.4821429 L8.76923077,57 L8,57 L10.1153846,52 Z" id="Fill-28" fill="#FFFFFF" mask="url(#mask-2)"></path>
                        <path d="M14.5384615,54.9464286 L16.3653846,54.9464286 L15.5,52.625 L14.5384615,54.9464286 Z M15.1153846,52 L15.8846154,52 L18,57 L17.2307692,57 L16.6538462,55.4821429 L14.3461538,55.4821429 L13.7692308,57 L13,57 L15.1153846,52 Z" id="Fill-29" fill="#FFFFFF" mask="url(#mask-2)"></path>
                        <polygon id="Fill-30" fill="#FFFFFF" mask="url(#mask-2)" points="19.6888889 52.5357143 18 52.5357143 18 52 22 52 22 52.5357143 20.3111111 52.5357143 20.3111111 57 19.6888889 57"></polygon>
                        <polygon id="Fill-31" fill="#FFFFFF" mask="url(#mask-2)" points="25 52 28 52 28 52.5357143 25.6486486 52.5357143 25.6486486 54.1428571 27.7567568 54.1428571 27.7567568 54.6785714 25.6486486 54.6785714 25.6486486 57 25.0810811 57 25.0810811 52"></polygon>
                        <path d="M31.0909091,54.3214286 C31.7272727,54.3214286 32.2727273,54.1428571 32.2727273,53.4285714 C32.2727273,52.9821429 32,52.5357143 31.3636364,52.5357143 L29.7272727,52.5357143 L29.7272727,54.2321429 L31.0909091,54.2321429 L31.0909091,54.3214286 Z M29,52 L31.3636364,52 C32.2727273,52 32.9090909,52.5357143 32.9090909,53.3392857 C32.9090909,53.9642857 32.6363636,54.4107143 32,54.5892857 C32.5454545,54.6785714 32.7272727,55.125 32.7272727,55.6607143 C32.7272727,56.1071429 32.7272727,56.7321429 33,57 L32.2727273,57 C32.0909091,56.8214286 32.1818182,56.2857143 32.0909091,55.75 C32,55.3035714 31.9090909,54.8571429 31.2727273,54.8571429 L29.6363636,54.8571429 L29.6363636,57 L29,57 C29,57 29,52 29,52 L29,52 Z" id="Fill-32" fill="#FFFFFF" mask="url(#mask-2)"></path>
                        <polygon id="Fill-33" fill="#FFFFFF" mask="url(#mask-2)" points="34 52 38 52 38 52.5454545 34.8205128 52.5454545 34.8205128 54.1818182 37.7948718 54.1818182 37.7948718 54.7272727 34.8205128 54.7272727 34.8205128 56.4545455 38 56.4545455 38 57 34 57"></polygon>
                        <polygon id="Fill-34" fill="#FFFFFF" mask="url(#mask-2)" points="39.15 57 39.85 57 39.85 52 39.15 52"></polygon>
                        <path d="M41.7111111,56.4642857 L43.4,56.4642857 C43.9333333,56.4642857 44.2888889,56.1071429 44.2888889,55.5714286 C44.2888889,54.9464286 43.7555556,54.7678571 43.2222222,54.7678571 L41.7111111,54.7678571 L41.7111111,56.4642857 Z M41.7111111,54.1428571 L43.0444444,54.1428571 C43.7555556,54.1428571 44.1111111,53.875 44.1111111,53.3392857 C44.1111111,52.625 43.6666667,52.5357143 43.0444444,52.5357143 L41.7111111,52.5357143 L41.7111111,54.1428571 Z M41,52 L42.7777778,52 C43.2222222,52 43.7555556,52 44.1111111,52.1785714 C44.4666667,52.3571429 44.7333333,52.7142857 44.7333333,53.25 C44.7333333,53.7857143 44.4666667,54.1428571 44.0222222,54.4107143 C44.6444444,54.5 45,55.0357143 45,55.5714286 C45,56.2857143 44.4666667,57 43.4888889,57 L41.0888889,57 L41.0888889,52 L41,52 Z" id="Fill-35" fill="#FFFFFF" mask="url(#mask-2)"></path>
                        <path d="M50,55.1034483 C50,56.3103448 49.2888889,57 48.0444444,57 C46.8,57 46,56.3965517 46,55.1034483 L46,52 L46.6222222,52 L46.6222222,55.1034483 C46.6222222,55.9655172 47.1555556,56.3965517 47.9555556,56.3965517 C48.7555556,56.3965517 49.2888889,55.9655172 49.2888889,55.1034483 L49.2888889,52 L49.9111111,52 L49.9111111,55.1034483 L50,55.1034483 Z" id="Fill-36" fill="#FFFFFF" mask="url(#mask-2)"></path>
                        <path d="M53.0909091,54.3214286 C53.7272727,54.3214286 54.2727273,54.1428571 54.2727273,53.4285714 C54.2727273,52.9821429 54,52.5357143 53.3636364,52.5357143 L51.7272727,52.5357143 L51.7272727,54.2321429 L53.0909091,54.2321429 L53.0909091,54.3214286 Z M51,52 L53.3636364,52 C54.2727273,52 54.9090909,52.5357143 54.9090909,53.3392857 C54.9090909,53.9642857 54.6363636,54.4107143 54,54.5892857 C54.5454545,54.6785714 54.7272727,55.125 54.7272727,55.6607143 C54.7272727,56.1071429 54.7272727,56.7321429 55,57 L54.2727273,57 C54.0909091,56.8214286 54.1818182,56.2857143 54.0909091,55.75 C54,55.3035714 53.9090909,54.8571429 53.2727273,54.8571429 L51.6363636,54.8571429 L51.6363636,57 L51,57 L51,52 Z" id="Fill-37" fill="#FFFFFF" mask="url(#mask-2)"></path>
                        <path d="M60.4117647,56.3103448 C60.0196078,56.8275862 59.3333333,57 58.6470588,57 C56.9803922,57 56,55.7931034 56,54.5862069 C56,53.2068966 56.8823529,52 58.6470588,52 C59.8235294,52 60.8039216,52.4310345 61,53.637931 L60.3137255,53.637931 C60.2156863,52.9482759 59.5294118,52.6034483 58.6470588,52.6034483 C57.2745098,52.6034483 56.7843137,53.637931 56.7843137,54.6724138 C56.7843137,55.7068966 57.4705882,56.5689655 58.6470588,56.5689655 C59.8235294,56.5689655 60.4117647,55.8793103 60.4117647,55.0172414 L58.6470588,55.0172414 L58.6470588,54.5 L61,54.5 L61,57 L60.5098039,57 L60.4117647,56.3103448 Z" id="Fill-38" fill="#FFFFFF" mask="url(#mask-2)"></path>
                        <polygon id="Fill-39" fill="#FFFFFF" mask="url(#mask-2)" points="4.16666667 68 3.75 68 3 64.7179487 2.25 68 1.83333333 68 1 64.1025641 1.41666667 64.1025641 2.08333333 67.2820513 2.83333333 64 3.33333333 64 3.91666667 67.2820513 4.58333333 64 5 64"></polygon>
                        <polygon id="Fill-40" fill="#FFFFFF" mask="url(#mask-2)" points="9.16666667 68 8.75 68 8 64.7179487 7.25 68 6.83333333 68 6 64.1025641 6.41666667 64.1025641 7.08333333 67.2820513 7.83333333 64 8.33333333 64 8.91666667 67.2820513 9.58333333 64 10 64"></polygon>
                        <polygon id="Fill-41" fill="#FFFFFF" mask="url(#mask-2)" points="13.1666667 68 12.75 68 12 64.6315789 11.25 68 10.8333333 68 10 64 10.4166667 64 11.0833333 67.3684211 11.8333333 64 12.3333333 64 13 67.3684211 13.6666667 64 14 64"></polygon>
                        <polygon id="Fill-42" fill="#FFFFFF" mask="url(#mask-2)" points="15.2 67.8 15.8 67.8 15.8 67.2 15.2 67.2"></polygon>
                        <polygon id="Fill-43" fill="#FFFFFF" mask="url(#mask-2)" points="16 64 18 64 18 64.4210526 16.4 64.4210526 16.4 65.6842105 17.84 65.6842105 17.84 66.1052632 16.4 66.1052632 16.4 68 16 68"></polygon>
                        <path d="M20.5483871,65.8461538 C21.0322581,65.8461538 21.4193548,65.7435897 21.4193548,65.1282051 C21.4193548,64.7179487 21.2258065,64.4102564 20.7419355,64.4102564 L19.483871,64.4102564 L19.483871,65.7435897 L20.5483871,65.7435897 L20.5483871,65.8461538 Z M19,64 L20.7419355,64 C21.4193548,64 21.9032258,64.4102564 21.9032258,65.025641 C21.9032258,65.5384615 21.7096774,65.8461538 21.2258065,66.0512821 C21.6129032,66.1538462 21.7096774,66.4615385 21.8064516,66.8717949 C21.8064516,67.2820513 21.8064516,67.6923077 22,68 L21.4193548,68 C21.3225806,67.7948718 21.3225806,67.3846154 21.3225806,67.0769231 C21.2258065,66.6666667 21.2258065,66.3589744 20.7419355,66.3589744 L19.5806452,66.3589744 L19.5806452,68 L19,68 L19,64 Z" id="Fill-44" fill="#FFFFFF" mask="url(#mask-2)"></path>
                        <polygon id="Fill-45" fill="#FFFFFF" mask="url(#mask-2)" points="23.2 67.8 23.8 67.8 23.8 67.2 23.2 67.2"></polygon>
                        <path d="M26.5714286,65.2 C26.4857143,64.7 26.1428571,64.4 25.6285714,64.4 C24.8571429,64.4 24.5142857,65.2 24.5142857,66 C24.5142857,66.9 24.8571429,67.6 25.6285714,67.6 C26.2285714,67.6 26.5714286,67.1 26.5714286,66.5 L27,66.5 C26.9142857,67.5 26.4,68 25.5428571,68 C24.5142857,68 24,67.1 24,66 C24,64.9 24.5142857,64 25.5428571,64 C26.2285714,64 26.8285714,64.4 26.9142857,65.2 C26.9142857,65.2 26.5714286,65.2 26.5714286,65.2" id="Fill-46" fill="#FFFFFF" mask="url(#mask-2)"></path>
                        <path d="M28,64 L28.5,64 L28.5,65.6842105 L30.5,65.6842105 L30.5,64 L31,64 L31,68 L30.5,68 L30.5,66.1052632 L28.5,66.1052632 L28.5,68 L28,68 C28,68 28,64 28,64" id="Fill-47" fill="#FFFFFF" mask="url(#mask-2)"></path>
                    </g>
                </g>
            </g>
        </g>
    </g>
</svg>