<?xml version="1.0" encoding="utf-8"?>
<!-- Generator: Adobe Illustrator 27.5.0, SVG Export Plug-In . SVG Version: 6.00 Build 0)  -->
<svg version="1.1" id="Layer_1" xmlns="http://www.w3.org/2000/svg" xmlns:xlink="http://www.w3.org/1999/xlink" x="0px" y="0px"
	 viewBox="0 0 201 70" style="enable-background:new 0 0 201 70;" xml:space="preserve">
<style type="text/css">
	.st0{fill:#FFFFFF;}
</style>
<g>
	<g>
		<path class="st0" d="M136.1,27.3c-9.3,0-17.1,6-20.1,14.3c-1.5-4.3-4.4-8.1-8.2-10.6c-3.1-2.1-5.1-5.6-5.1-9.6
			c0-6.3,5.2-11.4,11.5-11.4V0.1c-11.8,0-21.4,9.5-21.4,21.3c0,7.4,3.7,13.9,9.4,17.7v0c3.1,2.1,5.1,5.6,5.1,9.6
			c0,6.3-5.2,11.4-11.5,11.4c-6.3,0-11.4-5.1-11.4-11.4h-9.9c0,11.7,9.6,21.3,21.3,21.3c9.3,0,17.2-5.9,20.2-14.2
			C118.9,64,126.8,70,136.1,70c11.8,0,21.4-9.5,21.4-21.3C157.5,36.9,147.9,27.3,136.1,27.3 M136.1,60.1c-6.3,0-11.4-5.1-11.4-11.4
			c0-6.3,5.1-11.5,11.4-11.5c6.3,0,11.5,5.2,11.5,11.5C147.6,55,142.4,60.1,136.1,60.1"/>
	</g>
	<g>
		<path class="st0" d="M190.3,69h10V48.7c0-11.8-9.7-21.4-21.4-21.4c-11.8,0-21.4,9.6-21.4,21.4v20.4h9.9V48.7
			c0-6.3,5.2-11.5,11.5-11.5c6.3,0,11.4,5.2,11.4,11.5V69L190.3,69z"/>
	</g>
	<g>
		<path class="st0" d="M57.7,26.4L57.7,26.4c-6.6,0-12.4,3-16.4,7.7c-3.9-4.7-9.8-7.7-16.4-7.7h-2.7v-5.1c0-6.3,5.2-11.4,11.5-11.4
			V0C22.1,0,12.4,9.5,12.4,21.3v5.1H0v9.9h12.4v32.9h9.9V36.3H25c6.3,0,11.4,5.1,11.4,11.4v21.4h9.9V47.7c0-6.3,5.1-11.4,11.4-11.4
			h2.7v32.8h9.9V26.4H57.7z"/>
	</g>
	<g>
		<polygon class="st0" points="90.2,26.4 74.5,36.3 74.5,46.4 90.2,36.7 		"/>
	</g>
</g>
<rect x="60.4" y="0.1" class="st0" width="9.9" height="23.6"/>
</svg>
