<?xml version="1.0" encoding="UTF-8"?>
<svg width="197px" height="69px" viewBox="0 0 197 69" version="1.1" xmlns="http://www.w3.org/2000/svg" xmlns:xlink="http://www.w3.org/1999/xlink">
    <title>Group 11</title>
    <defs>
        <polygon id="path-1" points="0 69 197 69 197 0 0 0"></polygon>
    </defs>
    <g id="Page-1" stroke="none" stroke-width="1" fill="none" fill-rule="evenodd">
        <g id="Desktop_Homepage" transform="translate(-771.000000, -4862.000000)">
            <g id="footer" transform="translate(-29.000000, 4833.000000)">
                <g id="partenaire" transform="translate(29.000000, 0.000000)">
                    <g id="Group-11" transform="translate(771.000000, 29.000000)">
                        <path d="M133.84225,59.2618659 C127.619208,59.2618659 122.533201,54.1795983 122.533201,47.9701313 C122.533201,41.7044031 127.621185,36.586602 133.84225,36.586602 C140.117695,36.586602 145.244239,41.7073642 145.244239,47.9701313 C145.244239,54.1786113 140.117695,59.2618659 133.84225,59.2618659 M133.84225,26.8455068 C124.64512,26.8455068 116.893507,32.7480045 114.005438,40.9315509 C112.479834,36.6458244 109.631314,32.9769977 105.929523,30.4679427 C102.888202,28.4000944 100.874167,24.9494035 100.874167,21.0298687 C100.874167,14.8105313 106.003678,9.73615999 112.279122,9.73615999 L112.279122,0 C100.651703,0 91.1371918,9.36700712 91.1371918,21.0308557 C91.1371918,28.289546 94.8152529,34.7033302 100.397601,38.5063943 L100.397601,38.5211999 C103.456719,40.5673333 105.468777,44.0417132 105.468777,47.9721054 C105.468777,54.1815724 100.339266,59.262853 94.0667872,59.262853 C87.825948,59.262853 82.7557605,54.1815724 82.7557605,47.9721054 L73,47.9721054 C72.9990113,59.5392241 82.4729849,69 94.0648098,69 C103.251064,69 111.097595,63.138958 114.003461,54.9366578 C116.901417,63.1063857 124.711364,69 133.84225,69 C145.483511,69 155,59.6310188 155,47.9691443 C155.000989,36.3092438 145.519105,26.8455068 133.84225,26.8455068" id="Fill-1" fill="#FFFFFF"></path>
                        <path d="M187.198039,67.9784097 L197,67.9784097 L197,48.0044282 C197,36.4114127 187.47549,27 175.984314,27 C164.398039,27 155,36.4114127 155,48.0044282 L155,68 L164.677451,68 L164.677451,48.0044282 C164.677451,41.8305807 169.761765,36.6861985 175.984314,36.6861985 C182.15098,36.6861985 187.198039,41.8305807 187.198039,48.0044282 L187.198039,67.9784097 Z" id="Fill-3" fill="#FFFFFF"></path>
                        <path d="M56.6987483,25.9569469 L56.6987483,25.9569469 C50.2543466,25.9569469 44.4692212,28.9239049 40.6196762,33.5504311 C36.7730787,28.9229211 30.9692853,25.9569469 24.5239011,25.9569469 L21.9192191,25.9569469 L21.9192191,20.9605347 C21.9192191,14.7718303 27.0146098,9.70950755 33.2516981,9.70950755 L33.2516981,0 C21.6971678,0 12.2236319,9.34158903 12.2236319,20.9605347 L12.2236319,25.9569469 L0,25.9569469 L0,35.6635033 L12.2236319,35.6635033 L12.2236319,68 L21.9192191,68 L21.9192191,35.6635033 L24.5239011,35.6635033 C30.7226708,35.6635033 35.7620573,40.7120537 35.7620573,46.9174816 L35.7620573,67.954748 L45.4605921,67.954748 L45.4605921,46.9174816 C45.4605921,40.71107 50.5176641,35.6635033 56.6987483,35.6635033 L59.3073604,35.6635033 L59.3073604,67.954748 L69,67.954748 L69,25.9569469 L56.6987483,25.9569469 Z" id="Fill-5" fill="#FFFFFF"></path>
                        <polygon id="Fill-7" fill="#FFFFFF" points="88 26 73 35.8758883 73 46 88 36.3713342"></polygon>
                        <mask id="mask-2" fill="white">
                            <use xlink:href="#path-1"></use>
                        </mask>
                        <g id="Clip-10"></g>
                        <polygon id="Fill-9" fill="#FFFFFF" mask="url(#mask-2)" points="59 23 69 23 69 0 59 0"></polygon>
                    </g>
                </g>
            </g>
        </g>
    </g>
</svg>