<?xml version="1.0" encoding="UTF-8"?>
<svg width="195px" height="68px" viewBox="0 0 195 68" version="1.1" xmlns="http://www.w3.org/2000/svg" xmlns:xlink="http://www.w3.org/1999/xlink">
    <title>Fill 1</title>
    <g id="Page-1" stroke="none" stroke-width="1" fill="none" fill-rule="evenodd">
        <g id="Desktop_Homepage" transform="translate(-1230.000000, -4862.000000)" fill="#FFFFFF">
            <g id="footer" transform="translate(-29.000000, 4833.000000)">
                <g id="partenaire" transform="translate(29.000000, 0.000000)">
                    <path d="M1406,66 L1417.56364,66 L1417.56364,70.4675325 L1411.30909,70.4675325 L1411.30909,71.8528139 L1417.16364,71.8528139 L1417.16364,76.04329 L1411.30909,76.04329 L1411.30909,77.5324675 L1418,77.5324675 L1418,82 L1406,82 L1406,66 Z M1393,70 L1393,77 L1394.02113,77 C1395.32394,77 1396.30986,76.715736 1396.97887,76.1472081 C1397.6831,75.5786802 1398,74.6548223 1398,73.3756345 C1398,72.3096447 1397.64789,71.4923858 1396.97887,70.8883249 C1396.27465,70.284264 1395.35915,70 1394.19718,70 L1393,70 Z M1387,82 L1387,66 L1393.15111,66 C1394.46667,66 1395.71111,66.1382289 1396.88444,66.3801296 C1398.05778,66.6220302 1399.12444,67.0712743 1400.01333,67.6587473 C1400.93778,68.2807775 1401.64889,69.075594 1402.18222,70.0777538 C1402.71556,71.0799136 1403,72.3585313 1403,73.8790497 C1403,75.2958963 1402.75111,76.5053996 1402.21778,77.5075594 C1401.68444,78.5442765 1401.00889,79.3736501 1400.12,80.0302376 C1399.26667,80.6868251 1398.23556,81.1706263 1397.13333,81.4816415 C1395.99556,81.7926566 1394.82222,81.9654428 1393.61333,81.9654428 L1387,81.9654428 L1387,82 Z M1370,66 L1375.38194,66 L1379.96528,74.1209503 L1380.06944,74.1209503 L1379.86111,66 L1385,66 L1385,82 L1379.44444,82 L1375,74.362851 L1374.89583,74.362851 L1375.13889,82 L1370,82 L1370,66 Z M1358.52,71 L1357,75 L1360,75 L1358.52,71 Z M1356.23864,66 L1361.86364,66 L1368,82 L1362.23864,82 L1361.42045,79.650108 L1356.40909,79.650108 L1355.625,82 L1350,82 L1356.23864,66 Z M1332.56794,72.9460043 L1332.79965,82 L1328,82 L1328,66 L1334.75261,66 L1337.5331,74.6047516 L1337.6324,74.6047516 L1340.04878,66 L1347,66 L1347,82 L1341.96864,82 L1342.13415,73.0151188 L1342.00174,72.9805616 L1339.15505,82 L1335.51394,82 L1332.70035,72.9460043 L1332.56794,72.9460043 Z M1314,73.4137931 C1314,73.9310345 1314.06557,74.4137931 1314.22951,74.862069 C1314.39344,75.3103448 1314.59016,75.6896552 1314.85246,76 C1315.11475,76.3103448 1315.44262,76.5517241 1315.80328,76.7241379 C1316.16393,76.8965517 1316.59016,77 1317.01639,77 C1317.44262,77 1317.83607,76.8965517 1318.19672,76.7241379 C1318.55738,76.5517241 1318.88525,76.3103448 1319.14754,76 C1319.40984,75.6896552 1319.63934,75.3103448 1319.77049,74.862069 C1319.90164,74.4137931 1320,73.9310345 1320,73.4137931 C1320,72.8965517 1319.93443,72.4482759 1319.77049,72 C1319.60656,71.5862069 1319.40984,71.2068966 1319.14754,70.9310345 C1318.88525,70.6551724 1318.55738,70.4137931 1318.19672,70.2413793 C1317.83607,70.0689655 1317.44262,70 1317.01639,70 C1316.59016,70 1316.19672,70.0689655 1315.80328,70.2413793 C1315.44262,70.4137931 1315.11475,70.6551724 1314.85246,70.9310345 C1314.59016,71.2413793 1314.39344,71.5862069 1314.22951,72 C1314.06557,72.4137931 1314,72.8965517 1314,73.4137931 L1314,73.4137931 Z M1309,73.3954918 C1309,72.1065574 1309.23107,70.9569672 1309.66019,69.9118852 C1310.08932,68.8668033 1310.6835,67.9959016 1311.44272,67.2643443 C1312.20194,66.5327869 1313.0932,65.9754098 1314.1165,65.5922131 C1315.13981,65.2090164 1316.29515,65 1317.4835,65 C1318.70485,65 1319.82718,65.2090164 1320.85049,65.5922131 C1321.87379,65.9754098 1322.79806,66.5327869 1323.55728,67.2643443 C1324.3165,67.9959016 1324.91068,68.8668033 1325.33981,69.9118852 C1325.76893,70.9569672 1326,72.1065574 1326,73.3954918 C1326,74.6844262 1325.76893,75.8688525 1325.33981,76.9139344 C1324.91068,77.9938525 1324.3165,78.8995902 1323.55728,79.6311475 C1322.79806,80.397541 1321.9068,80.954918 1320.85049,81.3729508 C1319.82718,81.7909836 1318.70485,82 1317.4835,82 C1316.26214,82 1315.13981,81.7909836 1314.1165,81.3729508 C1313.0932,80.954918 1312.20194,80.397541 1311.44272,79.6311475 C1310.6835,78.8647541 1310.08932,77.9590164 1309.66019,76.9139344 C1309.19806,75.8688525 1309,74.6844262 1309,73.3954918 L1309,73.3954918 Z M1298.10465,73 L1299.15116,73 C1299.32558,73 1299.53488,73 1299.74419,72.9605263 C1299.95349,72.9210526 1300.16279,72.8421053 1300.33721,72.7236842 C1300.51163,72.6052632 1300.68605,72.4473684 1300.82558,72.25 C1300.96512,72.0526316 1301,71.7763158 1301,71.4605263 C1301,71.1447368 1300.93023,70.8684211 1300.82558,70.6710526 C1300.72093,70.4736842 1300.5814,70.3552632 1300.40698,70.2368421 C1300.23256,70.1578947 1300.05814,70.0789474 1299.84884,70.0394737 C1299.63953,70 1299.46512,70 1299.2907,70 L1298,70 L1298,73 L1298.10465,73 Z M1293.07075,66 L1300.11085,66 C1300.92453,66 1301.70283,66.0689655 1302.51651,66.2413793 C1303.29481,66.4137931 1304.00236,66.6896552 1304.63915,67.0689655 C1305.27594,67.4827586 1305.77123,68 1306.16038,68.6896552 C1306.54953,69.3448276 1306.72642,70.2068966 1306.72642,71.2068966 C1306.72642,72.1724138 1306.47877,73.0344828 1305.98349,73.7931034 C1305.48821,74.5517241 1304.78066,75.1034483 1303.86085,75.5172414 L1308,82 L1301.66745,82 L1298.51887,76.3103448 L1298.34198,76.3103448 L1298.34198,82 L1293,82 L1293,66 L1293.07075,66 Z M1406,42 L1417.56495,42 L1417.56495,46.4827586 L1411.32931,46.4827586 L1411.32931,47.862069 L1417.20242,47.862069 L1417.20242,52.0344828 L1411.32931,52.0344828 L1411.32931,53.5172414 L1418,53.5172414 L1418,58 L1406.03625,58 L1406.03625,42 L1406,42 Z M1396,58 L1402,58 L1402,42 L1396,42 L1396,58 Z M1385,49 L1386.0814,49 C1386.25581,49 1386.46512,49 1386.67442,48.9605263 C1386.88372,48.9210526 1387.09302,48.8421053 1387.30233,48.7236842 C1387.47674,48.6052632 1387.65116,48.4473684 1387.7907,48.25 C1387.93023,48.0526316 1388,47.7763158 1388,47.4605263 C1388,47.1447368 1387.93023,46.8684211 1387.82558,46.6710526 C1387.72093,46.4736842 1387.5814,46.3552632 1387.40698,46.2368421 C1387.23256,46.1578947 1387.05814,46.0789474 1386.88372,46.0394737 C1386.67442,46 1386.5,46 1386.32558,46 L1385.03488,46 L1385.03488,49 L1385,49 Z M1380,42 L1387.07547,42 C1387.88915,42 1388.66745,42.0689655 1389.48113,42.2413793 C1390.29481,42.4137931 1391.00236,42.6896552 1391.60377,43.0689655 C1392.24057,43.4827586 1392.73585,44 1393.125,44.6896552 C1393.51415,45.3448276 1393.69104,46.2068966 1393.69104,47.2068966 C1393.69104,48.1724138 1393.4434,49.0344828 1392.94811,49.7931034 C1392.45283,50.5517241 1391.74528,51.1034483 1390.82547,51.5172414 L1395,58 L1388.66745,58 L1385.51887,52.2758621 L1385.34198,52.2758621 L1385.34198,58 L1380,58 L1380,42 Z M1365,42 L1376.56495,42 L1376.56495,46.4827586 L1370.32931,46.4827586 L1370.32931,47.862069 L1376.20242,47.862069 L1376.20242,52.0344828 L1370.32931,52.0344828 L1370.32931,53.5172414 L1377,53.5172414 L1377,58 L1365.03625,58 L1365.03625,42 L1365,42 Z M1357.84375,58 L1352.15625,58 L1352.15625,46.5172414 L1348,46.5172414 L1348,42 L1362,42 L1362,46.5172414 L1357.84375,46.5172414 L1357.84375,58 Z M1336,49.4137931 C1336,49.9310345 1336.06557,50.4137931 1336.22951,50.862069 C1336.39344,51.3103448 1336.59016,51.6896552 1336.85246,52 C1337.11475,52.3103448 1337.44262,52.5517241 1337.80328,52.7241379 C1338.16393,52.8965517 1338.59016,53 1339.01639,53 C1339.44262,53 1339.83607,52.9310345 1340.19672,52.7241379 C1340.55738,52.5517241 1340.88525,52.3103448 1341.14754,52 C1341.40984,51.6896552 1341.63934,51.3103448 1341.77049,50.862069 C1341.93443,50.4137931 1342,49.9310345 1342,49.4137931 C1342,48.8965517 1341.93443,48.4482759 1341.77049,48 C1341.60656,47.5862069 1341.40984,47.2068966 1341.14754,46.9310345 C1340.88525,46.6551724 1340.55738,46.4137931 1340.19672,46.2413793 C1339.83607,46.0689655 1339.44262,46 1339.01639,46 C1338.59016,46 1338.19672,46.0689655 1337.80328,46.2413793 C1337.44262,46.4137931 1337.11475,46.6551724 1336.85246,46.9310345 C1336.59016,47.2068966 1336.39344,47.5862069 1336.22951,48 C1336.09836,48.4482759 1336,48.8965517 1336,49.4137931 L1336,49.4137931 Z M1330,49.3959184 C1330,48.1122449 1330.23062,46.9326531 1330.65891,45.8918367 C1331.08721,44.8510204 1331.68023,43.9836735 1332.43798,43.255102 C1333.19574,42.5265306 1334.08527,41.9714286 1335.13953,41.5897959 C1336.16085,41.2081633 1337.28101,41 1338.5,41 C1339.71899,41 1340.83915,41.2081633 1341.86047,41.5897959 C1342.88178,41.9714286 1343.80426,42.5612245 1344.56202,43.255102 C1345.31977,43.9836735 1345.91279,44.8510204 1346.34109,45.8918367 C1346.76938,46.9326531 1347,48.1122449 1347,49.3959184 C1347,50.6795918 1346.76938,51.8591837 1346.34109,52.9346939 C1345.91279,54.0102041 1345.31977,54.9122449 1344.56202,55.6408163 C1343.80426,56.4040816 1342.91473,56.9591837 1341.86047,57.3755102 C1340.83915,57.7918367 1339.68605,58 1338.5,58 C1337.28101,58 1336.16085,57.7918367 1335.13953,57.3755102 C1334.11822,56.9591837 1333.19574,56.4040816 1332.43798,55.6408163 C1331.68023,54.877551 1331.08721,53.9755102 1330.65891,52.9346939 C1330.23062,51.8591837 1330,50.6795918 1330,49.3959184 L1330,49.3959184 Z M1316,42 L1321.55305,42 L1321.55305,53.3693305 L1327,53.3693305 L1327,58 L1316,58 L1316,42 Z M1423,30 L1274.91617,30 C1282.79151,35.537037 1287.91564,44.6851852 1287.91564,55.0714286 C1287.91564,71.9920635 1274.22837,85.7142857 1257.34283,85.7142857 C1246.13165,85.7142857 1236.33047,79.6613757 1231,70.6164021 L1231,95 L1423,95 L1423,30 Z M1232,40 C1234.25882,36.0288809 1237.36471,32.6353791 1241,30 L1232,30 L1232,40 Z M1237,55.5172414 C1237,67.3793103 1246.60932,77 1258.5,77 C1270.39068,77 1280,67.3793103 1280,55.5172414 C1280,43.6206897 1270.39068,34 1258.5,34 C1246.60932,34 1237,43.6206897 1237,55.5172414 L1237,55.5172414 Z M1230,97 L1425,97 L1425,29 L1230,29 L1230,97 Z M1245,59.5169102 C1245,52.0792134 1251.03812,46 1258.48285,46 C1265.92757,46 1272,52.0792134 1272,59.5169102 C1272,66.9546071 1265.92757,73 1258.48285,73 C1251.07243,73.0338205 1245,66.9546071 1245,59.5169102 L1245,59.5169102 Z" id="Fill-1"></path>
                </g>
            </g>
        </g>
    </g>
</svg>