<?xml version="1.0" encoding="utf-8"?>
<!-- Generator: Adobe Illustrator 27.5.0, SVG Export Plug-In . SVG Version: 6.00 Build 0)  -->
<svg version="1.1" id="Calque_1" xmlns="http://www.w3.org/2000/svg" xmlns:xlink="http://www.w3.org/1999/xlink" x="0px" y="0px"
	 viewBox="0 0 566.9 197.6" style="enable-background:new 0 0 566.9 197.6;" xml:space="preserve">
<style type="text/css">
	.st0{fill:#FFFFFF;}
</style>
<path class="st0" d="M41.5,89.9c0-21.9,17.6-39.8,39.3-39.8s39.4,17.9,39.4,39.8s-17.7,39.7-39.4,39.7
	C59.2,129.7,41.5,111.8,41.5,89.9z M566.9,0v197.6H0V0H566.9z M18.7,77.2c0,34.4,27.8,62.3,62.2,62.3s62.2-27.9,62.2-62.3
	c0-34.5-27.8-62.4-62.2-62.4C46.5,14.8,18.7,42.7,18.7,77.2z M4.3,32c6.4-11,15.2-20.4,25.5-27.7H4.3V32z M562.6,4.3H132
	c22.9,16.1,37.8,42.7,37.8,72.9c0,49.2-39.8,89.1-88.9,89.1c-32.6,0-61.1-17.6-76.6-43.9v70.9h558.3V4.3z M252.2,39.9h15.7v32.9
	h15.4v13.4h-31.1L252.2,39.9L252.2,39.9z M289,62.8c0-3.7,0.7-7.1,2-10.1c1.3-3,3.1-5.5,5.4-7.6s5-3.7,8.2-4.8
	c3.1-1.1,6.5-1.7,10.2-1.7s7.1,0.6,10.2,1.7c3.1,1.1,5.9,2.8,8.2,4.8c2.3,2.1,4.1,4.6,5.4,7.6s2,6.4,2,10.1s-0.7,7.1-2,10.2
	s-3.1,5.7-5.4,7.8c-2.3,2.2-5,3.8-8.2,5c-3.1,1.2-6.6,1.8-10.2,1.8c-3.7,0-7.1-0.6-10.2-1.8c-3.1-1.2-5.9-2.8-8.2-5
	c-2.3-2.2-4.1-4.8-5.4-7.8C289.7,69.9,289,66.5,289,62.8z M305.6,62.8c0,1.5,0.2,2.9,0.7,4.2s1.1,2.4,1.9,3.3s1.8,1.6,2.9,2.1
	s2.4,0.8,3.7,0.8c1.3,0,2.5-0.2,3.6-0.8c1.1-0.5,2.1-1.2,2.9-2.1s1.5-2,1.9-3.3c0.5-1.3,0.7-2.7,0.7-4.2c0-1.5-0.2-2.8-0.7-4.1
	c-0.5-1.2-1.1-2.3-1.9-3.1s-1.8-1.5-2.9-2s-2.3-0.7-3.6-0.7c-1.3,0-2.5,0.2-3.7,0.7c-1.1,0.5-2.1,1.2-2.9,2s-1.4,1.9-1.9,3.1
	C305.9,60,305.6,61.3,305.6,62.8z M372.7,86.3h-15.6V53h-11.4V39.9h38.4V53h-11.4V86.3z M392.7,39.9h31.9v13h-17.2v4h16.2V69h-16.2
	v4.3h18.4v13h-33L392.7,39.9L392.7,39.9z M436.1,39.9h20c2.3,0,4.5,0.2,6.8,0.7s4.3,1.3,6,2.4c1.8,1.2,3.2,2.7,4.3,4.7
	c1.1,1.9,1.6,4.4,1.6,7.3c0,2.8-0.7,5.3-2.1,7.5s-3.4,3.8-6,5l11.8,18.8h-17.9l-8.9-16.6h-0.5v16.6h-15.1L436.1,39.9L436.1,39.9z
	 M451.1,59.5h3.1c0.5,0,1.1,0,1.7-0.1s1.2-0.3,1.8-0.6c0.5-0.3,1-0.7,1.4-1.2s0.6-1.2,0.6-2s-0.2-1.5-0.5-2s-0.7-0.8-1.2-1.1
	c-0.5-0.2-1-0.4-1.5-0.5c-0.6-0.1-1.1-0.1-1.6-0.1h-3.7L451.1,59.5L451.1,59.5z M484.3,39.9H500v46.4h-15.7V39.9z M509.9,39.9h31.9
	v13h-17.2v4h16.2V69h-16.2v4.3H543v13h-33V39.9H509.9z M182.8,107.6h19.9c2.3,0,4.5,0.2,6.8,0.7c2.2,0.5,4.2,1.3,6,2.4
	c1.8,1.2,3.2,2.7,4.3,4.7c1.1,1.9,1.6,4.4,1.6,7.3c0,2.8-0.7,5.3-2.1,7.5c-1.4,2.2-3.4,3.8-6,5L225,154h-17.9l-8.9-16.5h-0.5V154
	h-15.1v-46.4H182.8z M197.8,127.1h3c0.5,0,1.1,0,1.7-0.1c0.6-0.1,1.2-0.3,1.7-0.6c0.5-0.3,1-0.7,1.4-1.2s0.5-1.2,0.5-2
	s-0.2-1.5-0.5-2s-0.7-0.8-1.2-1.1c-0.5-0.2-1-0.4-1.6-0.5s-1.1-0.1-1.6-0.1h-3.7v7.6H197.8z M227.6,130.5c0-3.7,0.7-7,2-10
	s3.1-5.5,5.4-7.6c2.3-2.1,5-3.7,8.1-4.8c3.1-1.1,6.6-1.7,10.2-1.7c3.7,0,7.1,0.6,10.2,1.7s5.9,2.7,8.2,4.8c2.3,2.1,4.1,4.6,5.4,7.6
	s2,6.3,2,10s-0.7,7.1-2,10.1c-1.3,3.1-3.1,5.7-5.4,7.8c-2.3,2.2-5,3.8-8.2,5c-3.1,1.2-6.5,1.8-10.2,1.8s-7.1-0.6-10.2-1.8
	c-3.1-1.2-5.8-2.8-8.1-5s-4.1-4.8-5.4-7.8C228.2,137.6,227.6,134.2,227.6,130.5z M244.1,130.5c0,1.5,0.2,2.9,0.7,4.2
	s1.1,2.4,1.9,3.3c0.8,0.9,1.8,1.6,2.9,2.1c1.1,0.5,2.4,0.8,3.7,0.8s2.5-0.3,3.6-0.8s2.1-1.2,2.9-2.1c0.8-0.9,1.5-2,1.9-3.3
	s0.7-2.7,0.7-4.2s-0.2-2.8-0.7-4.1c-0.5-1.2-1.1-2.3-1.9-3.1c-0.8-0.8-1.8-1.5-2.9-2s-2.3-0.7-3.6-0.7s-2.5,0.2-3.7,0.7
	c-1.1,0.5-2.1,1.2-2.9,2c-0.8,0.9-1.4,1.9-1.9,3.1S244.1,129,244.1,130.5z M299.4,127.7l0.7,26.2h-14.5v-46.3H306l8.4,24.9h0.3
	l7.3-24.9h21v46.3h-15.2l0.5-26l-0.4-0.1l-8.6,26.1h-11l-8.5-26.2L299.4,127.7L299.4,127.7z M366.7,107.6h16.5l18,46.3h-16.9
	l-2.4-6.8h-14.7l-2.3,6.8h-16.5L366.7,107.6z M374.7,123.7l-3.8,11.5h7.5L374.7,123.7z M406.8,107.6h15.5l13.2,23.5h0.3l-0.6-23.5
	H450v46.3h-16l-12.8-22.1h-0.3l0.7,22.1h-14.8L406.8,107.6L406.8,107.6z M458.5,153.9v-46.3h17.3c3.7,0,7.2,0.4,10.5,1.1
	s6.3,2,8.8,3.7c2.6,1.8,4.6,4.1,6.1,7s2.3,6.6,2.3,11c0,4.1-0.7,7.6-2.2,10.5c-1.5,3-3.4,5.4-5.9,7.3c-2.4,1.9-5.3,3.3-8.4,4.2
	c-3.2,0.9-6.5,1.4-9.9,1.4h-18.6V153.9z M473.5,120.8v19.7h2.9c3.7,0,6.5-0.8,8.4-2.4c2-1.6,2.9-4.2,2.9-7.8c0-3-1-5.3-2.9-7
	c-2-1.7-4.6-2.5-7.9-2.5H473.5z M510,107.6h31.8v12.9h-17.2v4h16.1v12.1h-16.1v4.3H543v12.9h-33V107.6z"/>
</svg>
